/* XPM */
static char *_0859897e7c14deef434fbcd60c61857Bj2JI6HX7VcjYrPZ[] = {
/* columns rows colors chars-per-pixel */
"64 64 189 2 ",
"   c #000001",
".  c #070C0C",
"X  c #0A0C0C",
"o  c #1E0200",
"O  c #170A05",
"+  c #180906",
"@  c #190608",
"#  c #0A120D",
"$  c #070C11",
"%  c #0A0E11",
"&  c #0C1314",
"*  c #0F1816",
"=  c #0E161A",
"-  c #0F1A1B",
";  c #111515",
":  c #121A17",
">  c #12161A",
",  c #121A1B",
"<  c #1B1B1B",
"1  c #240101",
"2  c #23221E",
"3  c #141E22",
"4  c #1D1E22",
"5  c #151E28",
"6  c #231F23",
"7  c #152124",
"8  c #1A2225",
"9  c #162329",
"0  c #19252B",
"q  c #1C2A2D",
"w  c #192632",
"e  c #1D2C33",
"r  c #1D2F39",
"t  c #1E3036",
"y  c #16303F",
"u  c #1F323A",
"i  c #282222",
"p  c #212A2C",
"a  c #282A2C",
"s  c #352F2F",
"d  c #392B2C",
"f  c #392A25",
"g  c #263027",
"h  c #25302F",
"j  c #2F312E",
"k  c #32312D",
"l  c #212E34",
"z  c #212F39",
"x  c #382C30",
"c  c #233235",
"v  c #283337",
"b  c #233937",
"n  c #23343C",
"m  c #28363D",
"M  c #25393D",
"N  c #293A3D",
"B  c #2E3B32",
"V  c #383D37",
"C  c #343530",
"Z  c #423C2E",
"A  c #38433D",
"S  c #50523C",
"D  c #1E3446",
"F  c #1E394C",
"G  c #243641",
"H  c #283440",
"J  c #263A42",
"K  c #293C43",
"L  c #223748",
"P  c #263D49",
"I  c #2B3E4A",
"U  c #303F44",
"Y  c #254047",
"T  c #2B4146",
"R  c #26414B",
"E  c #2D434B",
"W  c #2F484E",
"Q  c #314346",
"!  c #31464D",
"~  c #32494E",
"^  c #3A4B4D",
"/  c #384B45",
"(  c #36504F",
")  c #2E4552",
"_  c #2E4A54",
"`  c #2D4758",
"'  c #2F4B59",
"]  c #314652",
"[  c #334B54",
"{  c #384E55",
"}  c #344D5A",
"|  c #384F5C",
" . c #355155",
".. c #3B5254",
"X. c #36525C",
"o. c #39535D",
"O. c #3D5A5E",
"+. c #1F4471",
"@. c #214A66",
"#. c #2B4F65",
"$. c #354F61",
"%. c #394F61",
"&. c #365362",
"*. c #395661",
"=. c #3D5760",
"-. c #395562",
";. c #375964",
":. c #3D5A61",
">. c #3E5A65",
",. c #3F5B66",
"<. c #3D5A65",
"1. c #3E5D66",
"2. c #3C5A64",
"3. c #3B5669",
"4. c #375869",
"5. c #3C5B6A",
"6. c #345368",
"7. c #3E616C",
"8. c #3E6172",
"9. c #3E6878",
"0. c #34627C",
"q. c #4D5A47",
"w. c #43564D",
"e. c #535740",
"r. c #405353",
"t. c #4A5559",
"y. c #415A5E",
"u. c #475B5B",
"i. c #496058",
"p. c #44645F",
"a. c #6A6F4F",
"s. c #6B6B53",
"d. c #415A66",
"f. c #415D64",
"g. c #4D5D64",
"h. c #415E6A",
"j. c #44556C",
"k. c #436165",
"l. c #43636C",
"z. c #49666D",
"x. c #4C6B6D",
"c. c #516B6A",
"v. c #456671",
"b. c #446472",
"n. c #486672",
"m. c #476C75",
"M. c #466974",
"N. c #486A72",
"B. c #496A76",
"V. c #496A75",
"C. c #41627C",
"Z. c #456A79",
"A. c #496C79",
"S. c #4A6C7A",
"D. c #497077",
"F. c #4C717C",
"G. c #667F79",
"H. c #295C87",
"J. c #38688C",
"K. c #466F81",
"L. c #4E7283",
"P. c #4F7987",
"I. c #4A728C",
"U. c #527584",
"Y. c #537C85",
"T. c #557F8B",
"R. c #4C7F90",
"E. c #4B7492",
"W. c #558087",
"Q. c #58858B",
"!. c #578595",
"~. c #5D8A95",
"^. c #5A839D",
"/. c #5F8E99",
"(. c #66898D",
"). c #618F9B",
"_. c #689193",
"`. c #64969B",
"'. c #7EA49C",
"]. c #6799A2",
"[. c #6799A4",
"{. c #6FA3AE",
"}. c #71A5B2",
"|. c #7BACC7",
" X c #85AAC4",
".X c #85B2C4",
"XX c #89B7D8",
"oX c #86B6DA",
"OX c #89BCE1",
/* pixels */
"N.Q { ,.O.O.,.:.2.1.1.d.:.d.:.,.d.o.:.,.:.:.:.O.:.,.,.,.:.O.o.=.O.o.O.:.:.:.:.,.h.,.o.:.,.,.o.O.,.o.2.:.:.o.O.O.:.,.:.=.o.o. .! ",
"E   , 9 0 9 9 7 9 7 9 9 7 5 7 9 0 7 9 9 9 9 9 0 0 0 7 9 9 9 w 3 5 w w 9 9 9 0 0 0 0 9 7 0 9 7 7 0 9 7 7 3 7 9 0 9 9 0 5 9 = 0 J ",
" .0 K { o.! ~ [ ! ! E E ~ ] I Q ~ W E [ ! E ! ! [ { ~ ~ o.T R ~ E R ! o.~ [ [ ~ W ] ! [ [ E ! E E E ) [ E E ! [ _ { [ X.K n [ } ",
"{ 0 K E E ) E I [ O.X.o.E )  . .o. . .E E o.} o. ._ [ _ -.] J ] [ J J [ } } _ } ,.o.o.[ _ o.X.X.X.o.] [ -.} [ ! ) } E -.] l ~ [ ",
"X.0 N J } ,.o.} A.F.m.B.I -.S.M.v.v.N.P -.S.v.F.[  .h.3.l.[ M E E R M o.Z.b.} A.U.A.M.K h.U.v.B.m.N.E -.F.l.k.E ] 5.&.b.} l ! } ",
"X.q K G ) X.} ,.v.[ } } e E } _ } } ) e [ [ [ -.M E 5.X.v.[ J E E K N X.C.4.X.h.} ;.} l [ &.$.X.&.} e [ } ) } M G ,.X.l.[ l [  .",
"} 7 J J W | } 1.l.} T [ n E ;.&.3.3.&.c ) 3.-.5.[ I 5.X.b.[ M E ) K J | h.} 1.b.X.5.X.c  .5.3.4.4.3.z [ &.X.3.I G 5.X.b.{ u [ } ",
"} , K K ! | } h.b. .[ J e [ 5.;.4.3.X.n { 5.3.5.&.K 3.X.7.W v I ! P n } ,.} h.h.o.,.o.c X.5.-.5.5.&.u ] 4.X.&.) J 3.&.l.[ c [ X.",
" .8 K J E &.} l.h.-.;.X.p ~ 3.&.-.5.-.n o.h.-.5.5.J [ } l.~ n K E K M _ 3.} l.5.4.-.-.c X.b.3.5.5.3.u [ 5.X.&.X.J } 3.l.[ e [ X.",
"X.9 K K ) X.-.l.X.5.4.3.n ) o.o.3.,.o.n o.5.-.4.5.P E | h.~ J I E J M ] -.X.v.5.5.4.&.c o.5.3.5.;.&.c [ 5.-.X.1.J E &.5.[ l [ } ",
"} 9 K K [ } 1.l.X.,.4.&.n ] -.-.o.o.X.n [ 3.5.,.-.P I ,.v.E M E W K c E X.,.b.-.4.3.3.n [ 3.X.&.&.X.e ! -.} &.5.E n } 5.) l [ } ",
" .0 K J W } l.v.3.5.4. .e  .l.;.X.X.3.n ! 3.3.=.,.} J X.b.[ n E ! T c R _ h.h.} 3.5.3.u [ 5.&.&.&.} e E &.&.X.} I J } 4.! e [ { ",
" .0 K J ! X.v.l.3.5.;.} c R I J J J L w [ ,.;.o.,.&.G } l.[ v E ] K n ] ' -.-.&.3.4.3.n K K M M J t q  .3.X.-.X.} G ) 5.[ u } [ ",
" .0 K K [ -.l.5.3.3.3.} n I E E ! E T K  .&.-.-.3.3.G ) b.~ c E ] K M [ -.h.-.-.3.-.&.M K E E R T R I -.-.-.;.5.8.G K b.| c ] [ ",
" .0 K J ] ,.l.-.&.X.3.-.e  .S.v.v.B.B.E ] 3.-.-.X.5.R G b.~ n E ! T n ] 5.b.3.3.-.-.4.c -.F.A.A.Z.V.I [ -.&.&.X.5.R K &.J M [ { ",
"{ 0 K J E h.h.} -.X.&.X.l ] } ) J [ X.w ! -.X.-.-.4.E G b.! M I E K c I b.b.-.3.X.,.3.n [ } } X.X.[ e [ -.X.} X.5.) J -.K M ~ } ",
"} 9 N J E 7.d.E o.3.X.X.n } -.} X.-.} e ! 3.X.X.o.-.} n d.~ J R E K n R l.k.&.,.-.3.3.n [ -.X.-.-.X.t [ ,.} X.4.3.) n 7. .z ~ } ",
"} 0 K K ) l.,.-.X.&.4.-.c } X.} X.&.} e ! &.&.X.X.X.-.n =.[ J I E T c J v.1.&.-.-.3.&.z [ 3.-.&.&.X.t [ 3.&.&.-.o.} l 3.} n [ { ",
"{ 0 N M ) h.$.-.X.-.3.| e ] -.} X.&.' l E &.X.X.&.&.,.G  .[ M I E K l c :.-.&.3.-.-.3.c W -.X.X.-.-.c [ 3.X.X.X.X.5.n }  .c [ { ",
"} 9 N v [ 1.] o.-.&.o.} e E &.} ' } X.c [ 3.o.&.X.X.-.J E [ v J E J M E ,.o.| -.o.X.-.c ~ 3. .| -.X.z ! X.} X.X.&.3.L [ X.l [ { ",
"X.9 J c X.l.} 3.3.&.&.;.u ] 5.X.} } &.r [ 5.,.5.4.-.3.] T ! M K E K c 2.b.X.-.&.X.X.&.c [ 3.X.X.&.-.c [ 3.-.,.X.o.-.E ! { n ! [ ",
"X.9 K m R J z n n c u r 5 M M u l z e 7 J M n G M n n e n ! J I E J c K P n n n r z c 9 v c r c n n 0 M G G G n n G e n ) M [ } ",
"-.0 v v { [ [ W E W ) E o.o.E E E ) E X.2.E [ _ ~ [ ! E h.K M I K c c } ~ E E E ) ) E  .o.E E ! [ E X.2.~ W ) [ [ ! E k.E l _ [ ",
"X.9 n M d.k.f.:.O.f.f.f.k.f.f.O.,.1.d.1.k.d.y.f.k.f.f.f.f.[ [ K -.I n =.O.:.o.O.,.,.f.f.o.:.,.d.f.l.l.l.k.l.z.l.N.l.l.n.=.M ! } ",
"o.7 E l.h.:.,.f.,.l.l.l.:.$.1.,.1.,.l.f.} 5.d.f.l.h.f.f.l.S.l.,.5.h.l.k.:.f.:.l.l.k.:.} f.,.f.k.h.o.o.} -. .X.:.X. .-.X.7.K ! } ",
" .7 ~ B.k.l.l.l.b.X.} h.} I B.7.h.b.L.-.E A.v.b.l.v.l.l.v.A. .J &.z.v.M.v.l.k.o.X.h.} I A.b.k.Z.3.E % = -.% & -.X = -.$ = E [ [ ",
"} 3 E &.) } } } P v j.I e P -.) ] X.3.P n -.} } } } } } [ X.M n ,.{ [ &.%.} J n j.I t J -.} } &.) G   ; o.  & X.  & 3.  # E [ [ ",
"-.3 E 3.} } &.-.J h. XA.w J h.X.4.1.l.! n -.-.X.}  .} } } &.J c  .,.-.X.-.-.J h. XS.w K 5.-.4.8.[ c   , -.  , -.  , -.  , E E [ ",
"o.7 E 4.} -.&.X.J 5..XL.w J E u K I K e J ,.&.X.} } } } X.&.P u | -.-.-.-.-.n 5..XU.0 M E G I E u q   , -.  , }   ,  .  = R E [ ",
"| 3 E ,.X.4.3.&.I _ |.^.9 J ) T E E E J [ ,.} } &.X.X.X.} 3.R n X.-.} X.-.X.T } |.!.9 c E E ! E E J   : o.  > X.  ,  .  = I ] } ",
"} , ! 5.&.4.3.5.K &.XX^.7 J A.A.B.B.A.o.R ,.}  .&.&.X.X.X.-.I n X.3.} X.$.3.K 6.oX^.7 M v.v.B.A.1.u   = }   = X.  : X.  = K [ } ",
"X.3 ! 5.-.4.3.5.N C.OXI.e K ;.} &.} -.H c 1.X.-.X.X.X.} -.5.I n } -.| -.2.3.M 8.OXE.q J } ) _ &.K e   ;  .  , }   > &.  = T E [ ",
" .3 [ 5.3.;.3.8.E =.{.A.c K 1.&.&.X.,.J c ,.&.-.&.-.| 3.&.3.E n X.o.X.&.&.-.J =.}.A.l J 2.} X.4.) c   * }   >  .  * }   > K ) } ",
" .3 ! v.5.4.5.8.} c.'._.P J l.1.5.4.b.I n 5.3.5.4.,.,.5.3.5.E n 3.5.&.-.3.3.) x.'.(.J n k.3.4.b.[ c   X -.  . -.  X &.    K [ } ",
"| 5 E } E ] ) ) E R J T J K } R ] E ) G J  .) E E ) ) E E ) e J -.] J E I R E J u K u J [ I E ) M n q { 2.8 ..3.0 [ 3.0 ~ I E } ",
"{ 9 E J e e q q e e q q e J c 0 0 q 9 e E G e e l c t l l e l E Q c e q l q l e e q q K e 0 w 9 0 J -.-.P o.h.R o.o.I o.b.M T } ",
" .9 N ~ z.l.f.f.k.l.f.f.k.f.d.d.:.f.f.O.{ ..X.o.-.} o.=.{ [ o.X.{  .[ { X.X.[ [  .{  .[ o.O.f.f.f.f.O.o.f.:.O.p.O.o.:.:.M c ] } ",
"-.0 c [ F.v.B.v.M.Z.9.Z.Z.8.5.5.l.v.A.X.E &.;.3.[ } ) I [ ;.K c c J X.} R R [ o.3.X.} 3.l.7.b.V.b.Z.Z.M.V.8.5.b.b.l.S.,.t n ! } ",
"o.0 m ] 4._ X.` 8 < 4 4 8 v v v E } &.J e _ / T h.Q.4.E F./.[ q 7 I ~.Y.[ -.T.W.) E A ~ &.[ &.} 8 < 8 4 8 v h h E } -.P e M ~ X.",
" .9 v ! 5.} -.` O o 1 o @ q.a.e.~ &.&.E 3 w v N D.~.l.X.Y.].] M ) [ `.!.X.1.~.).n 3 h T 5.3.1._ O 1 1 o + q.s.S E &.3.) e M !  .",
"} 0 c E l.-.3.&.j d d d s r.i.w.o.;.3.] , 3 5 n F./.l. .Y.].[ e n { [.~.X.1.).`.c & = R S.3.5.X.j f x d k ..u.w.} 3.7.) e J ! } ",
"X.9 c J E J P J ) ) E R E L y D R E K e w E K R l.A.2._ l.U.} K P X.P.Z.3.,.F.F.E M J ] ) I K I E E ) ) E u D F J J E u 0 M ~ } ",
"{ 7 M K K v v M M M M v m m v M M 0 q v ~ :.1.o.~ ! [ [ ~ ~ ..,.y...] [ o.o.[ !  .:.O.{ M v N N M v M M M v J M M v c J ..K ! } ",
" .3 E } =.o.{ o.-. .O.,. .o.2.o.o.b c o.{ !  .X.! X.X.{  .o.[ X. .~ } X.[ o.o.[  .X.[ { o.o.=.| o.o.-.-.-.-.2.o.-.o.o.2.:.J ! { ",
"} 7 M [ o.W [ [ [ {  .[ X.{ [ } X. .{ { [  .{ [ | } [  .} }  .{ ~ X.{ [  . ._ o. .[ -.[ E E ~  .~ Q E T Q ! ! E T Q ! [ G z ~ [ ",
"[ 9 v ! , = -.& = 5.& > 3.& > 3.= 3 5.& , 7.& , 5.= - 3.& , ,.= = ,.& , 5.= , 5.& , 4.{ f.O.J ) ! =. . . .o.X.} X.o.o.K n M E ) ",
"} 9 K P   ; X.  & }   & X.  ; -.  # o.  & ,.  & o.  & -.  & o.  & X.  & -.  ; -.  ; } E -.3.E M J ;.X.%.&.-.X.-.&.&.3.Y m M T E ",
"{ 8 K I   , o.  , o.  : -.  , ,.  , -.  , ,.  : X.  , -.  , =.  , o.  , -.  , -.  , X.E 3.o.) J J X.[ } } $.&.o.o.X.&.T J M [ [ ",
" .0 I T   , -.  > -.  ; |   , -.  , 2.  X :.  ,  .  . 4.  , -.  > o.  , o.  , X.  ,  .E ,.&.T M K o.} } } X.} X.o.X.-.T K n E } ",
"} 7 T T   , o.  > X.  , -.  , -.  & 2.q  .-.  ; X.0 o.-.  : X.  , }   , X.  = }   ; } E 3.X.K J K o.X.X.-.-.3.&.&.&.-.K J v T [ ",
" .9 J E   : o.  . 2.  ; -.  , =.  X 5.b.Z.[   % -.b.S.]   , o.  , X.  , }   . -.  , [ I -.{ I J K o.[ K ) } ) I I [ &.K K M ! [ ",
"{ 0 K T   = X.q ..-.  X ,.  : ,.  = 4.$ ; o.  ; 5.. = }   , X.  , |   . o.0  .X.  , [ E d.X.I m T ] ; N v : N ..! K X.R J c ] [ ",
"{ 7 N I   ; 3.h.b.} 0 ..-.  , 4.  > o.  % -.  , o.  & o.  > -.  ; X.q ~ -.2.b.]   ,  .K F L K J I R 7 G.V 3 ~ p.y...X.R N M E ] ",
"} 9 K K   - 1.$ X &.b.B.[   , o.  . -.  > &.  , -.  , o.  X -.  & :.8.b.} . & [   , } v #.+.m J K ) 0 C Z N ! z.! T 4.R J J E [ ",
"{ 0 K K   , [   # 3.% & X.  & X.q ..-.  , X.  , -.  & o.q o.-.  > ,.. & }   &  .  ,  .c K.R.M M E } < p B g ~ x.Q U 3.P K M [ [ ",
"} 7 J K   , o.  , X.  & o.  & f.b.b.)   > -.  , -.  & ,.M.A.[   ,  .  & |   , X.  , X.c 0.H.M M P ) l T ~ ....Q ! E X.E J n [ } ",
"{ 8 M K   , o.  , o.  > X.  , 5.% & [   , &.  , -.  ; 5.% & }   , X.  , |   , X.  ,  .l @.J.m M R ) N g.g.y.r.t.t.^ _ I K M ! [ ",
"X.9 K E   , o.  , -.  , o.  , |   & o.  , o.  , -.  , X.  & o.  , o.  *  .  , }   , [ J &.z.I J E } < i p p 2 6 6 p [ I K M E E ",
"} 9 K K   : o.  , -.  , -.  , o.  , =.  ,  .  , 2.  , -.  , -.  ,  .  , X.  > [   * ! E ,.} E H R _ q n n c c t e t | T N M I I ",
"[ 0 I T   . 4.  X ,.  X ,.  X d.  . ,.  . 4.  X h.  X -.  . o.  . -.  . -.  . ,.  . [ M ;.} J J m } } &.&.} X.' ) [ } J M M ) [ ",
"} 7 N J 0 ! X.5 ^ 4.7 ~ ;.7 ~ -.7 ! o.7 [ 3.3 ( -.3 ~ &.3 ~ X.7 ~ X.8 ~ X.9 ~ X., ~ &.n [ [  .I v [ [ X.{ [ [ ] E W ) [ K c ! [ ",
"} , n J f.O.R o.f.] :.f.] O.h.) o.y.T :.,.E f.f.E 2.f.K ..=.E O.f.T o.d.! :.1.R o.O.] {  .|  .! W { [  .{ [ [ [ [ ~ [ o...n K [ ",
"-.c :.B.l.b.N.l.l.n.v.l.n.l.l.N.l.k.l.l.f.v.n.k.b.l.k.f.O.f.n.l.h.l.k.k.l.l.l.n.l.f.l.l.l.l.k.l.l.k.l.l.n.l.h.h.h.l.k.l.F.o.=.} ",
"~ [ -.-.X.-. .| } X.o.} }  .X.o. . . . . . .o.X. . .o.X. .{ { [ { [ { } [ } } X.[  .{ }  .} } } } o.X. .X. .[ } }  .X. .&.,.X.c "
};
