/* XPM */
static char *_816ad21b17845d2f2fab7af6dccdec7ZNZTAAGPw66oYfVD[] = {
/* columns rows colors chars-per-pixel */
"64 64 250 2 ",
"   c #030202",
".  c #0B0302",
"X  c #010A04",
"o  c #0D0B06",
"O  c #03050A",
"+  c #0B0509",
"@  c #050C0B",
"#  c #0C0C0B",
"$  c #130302",
"%  c #1B0302",
"&  c #130A06",
"*  c #1A0A04",
"=  c #140C0B",
"-  c #1B0D0B",
";  c #110508",
":  c #0C110E",
">  c #04130E",
",  c #14120D",
"<  c #1B120C",
"1  c #1B180F",
"2  c #050D13",
"3  c #0C0E11",
"4  c #150E11",
"5  c #170F16",
"6  c #061412",
"7  c #0C1314",
"8  c #0D1915",
"9  c #06151B",
"0  c #0B161A",
"q  c #0D1B1C",
"w  c #051A1C",
"e  c #141413",
"r  c #1B1513",
"t  c #141A15",
"y  c #1B1A14",
"u  c #12161A",
"i  c #141B1B",
"p  c #1B1C1B",
"a  c #18161B",
"s  c #220A08",
"d  c #24140D",
"f  c #221513",
"g  c #221B14",
"h  c #221E1C",
"j  c #2A1D16",
"k  c #0B221D",
"l  c #04231B",
"z  c #14221C",
"x  c #1C231D",
"c  c #1B281E",
"v  c #162419",
"b  c #23231D",
"n  c #2A291F",
"m  c #28241B",
"M  c #0D1D23",
"N  c #071A20",
"B  c #131D21",
"V  c #1A1E21",
"C  c #121621",
"Z  c #0D2323",
"A  c #0C2925",
"S  c #0D252B",
"D  c #0D2B2B",
"F  c #042827",
"G  c #142423",
"H  c #1B2423",
"J  c #152A24",
"K  c #1B2B25",
"L  c #132629",
"P  c #1B2529",
"I  c #142C2B",
"U  c #1C2C2B",
"Y  c #0C332E",
"T  c #1B3225",
"R  c #13322C",
"E  c #1B332D",
"W  c #1B392D",
"Q  c #143327",
"!  c #0B2D34",
"~  c #092933",
"^  c #142D32",
"/  c #1B2D32",
"(  c #142C39",
")  c #0C3332",
"_  c #0D3B3B",
"`  c #0A3738",
"'  c #153433",
"]  c #1C3432",
"[  c #153A34",
"{  c #1C3A34",
"}  c #14343B",
"|  c #1C3539",
" . c #143C3B",
".. c #1C3C3B",
"X. c #232523",
"o. c #232A24",
"O. c #292C25",
"+. c #232C2B",
"@. c #2A2D2B",
"#. c #292623",
"$. c #213226",
"%. c #24322C",
"&. c #2B332C",
"*. c #27392B",
"=. c #303529",
"-. c #252E31",
";. c #233433",
":. c #2A3433",
">. c #233A34",
",. c #2A3C34",
"<. c #233539",
"1. c #223C3B",
"2. c #2B3C3B",
"3. c #2B3638",
"4. c #333C36",
"5. c #0F443A",
"6. c #15433C",
"7. c #1C433C",
"8. c #184539",
"9. c #234235",
"0. c #23433C",
"q. c #2C433D",
"w. c #244A3D",
"e. c #29473B",
"r. c #34433A",
"t. c #28503C",
"y. c #2D432E",
"u. c #0E3D45",
"i. c #143E42",
"p. c #1C3D42",
"a. c #173847",
"s. c #022E47",
"d. c #243D41",
"f. c #0C4846",
"g. c #144443",
"h. c #1C4443",
"j. c #134B44",
"k. c #1C4B43",
"l. c #1B444B",
"z. c #144B4B",
"x. c #1C4B4B",
"c. c #0E554C",
"v. c #1B5244",
"b. c #14514A",
"n. c #1B544C",
"m. c #17594A",
"M. c #174A56",
"N. c #135454",
"B. c #1C5453",
"V. c #145B54",
"C. c #1C5B54",
"Z. c #1A5B5A",
"A. c #0C5056",
"S. c #234443",
"D. c #234B43",
"F. c #2A4A44",
"G. c #224B4B",
"H. c #2A4C4B",
"J. c #264648",
"K. c #344543",
"L. c #324D4B",
"P. c #394F43",
"I. c #245245",
"U. c #23544B",
"Y. c #2B544A",
"T. c #235B4C",
"R. c #2A5A4E",
"E. c #2A5245",
"W. c #294C51",
"Q. c #235453",
"!. c #235B54",
"~. c #235C5B",
"^. c #2B5955",
"/. c #375553",
"(. c #31544E",
"). c #1A6359",
"_. c #16604E",
"`. c #22645C",
"'. c #2B655D",
"]. c #27675A",
"[. c #36645A",
"{. c #286A57",
"}. c #185964",
"|. c #0A5862",
" X c #265C62",
".X c #1D6463",
"XX c #196868",
"oX c #1C736C",
"OX c #1B7768",
"+X c #1A7876",
"@X c #196A73",
"#X c #226262",
"$X c #2C6B64",
"%X c #256B67",
"&X c #326969",
"*X c #24736C",
"=X c #2C746C",
"-X c #28776A",
";X c #32746D",
":X c #32796E",
">X c #276D73",
",X c #287B77",
"<X c #347773",
"1X c #417A73",
"2X c #1B827C",
"3X c #1A8378",
"4X c #278679",
"5X c #32847C",
"6X c #30937B",
"7X c #277B82",
"8X c #357F80",
"9X c #1B8886",
"0X c #1B9492",
"qX c #199B9B",
"wX c #118E91",
"eX c #248C84",
"rX c #258988",
"tX c #348A87",
"yX c #279589",
"uX c #369786",
"iX c #279996",
"pX c #359A96",
"aX c #248F96",
"sX c #1DA492",
"dX c #25A498",
"fX c #34A796",
"gX c #2895A3",
"hX c #17A6A5",
"jX c #11AEB0",
"kX c #26A7A2",
"lX c #34A8A6",
"zX c #27B3AA",
"xX c #36BAB6",
"cX c #2FB1B4",
"vX c #46ABA2",
"bX c #489285",
"nX c #2FC6BA",
"mX c #49C2BB",
"MX c #1ABCC3",
"NX c #27BBC5",
"BX c #14CED0",
"VX c #2BC7C6",
"CX c #3CD9CA",
"ZX c #3CFEFE",
"AX c #2AEEEF",
"SX c #26E2E8",
"DX c #47CCCD",
"FX c #45FEFE",
"GX c #4FEEEB",
"HX c #6CF6FF",
/* pixels */
"p , r f r i - = b e y U g c J < h 1.b b ..U u 7.*Xy X.] { 6. .o.>.P B.J.#XJ $.e.y 0.< C.n.2.- =.y.P s q.&.K G ,.;...o.d - e e y ",
"  & % % $ 3 0.[.H   o E { , i L q { , p 7.q @ 6.OX# t [ 6.X ) J r 8 #X}.N.[ 8 8.p ..& `.b.E *.*.g. .{ { c z k e.,.7 p $ .   ;   ",
"e - % % $ . xXFX>.  $ U ..$.y G J ] & x D.6 6 8.,XK z G z.A.' 8.U : rXM.u.7.Q _.y j.e ].b.] c [ 7.o ).c x x Z { t E ;.$ . ; = e ",
"e 1 * $ $ 1 0XBXj.. & D.A p X.c W 7.= T OX8 6 6.uX] o J  .x.6.j.Q t +XA.@X6.J R.y b.z =XV.{ $ { B.S I A G E . A z +.>.. . = ; , ",
"r y * $ . y VXZX>X  $ J.n.e.:.U.T.w.r P 3XQ I 6.dXp.v 8.J U W W E z 2X}.m.g.W $Xy j.J 4XV.{ e t ' k z p E w., p q >.w.. $ = & e ",
"r +.< r , c iXDX%Xo & ;.U.^.'.] D.p < o.).7.J 6.fXi 8.D.p $.r e.$.c XX@XoX8.7.-X- x.A eXV.{ ' { { v I ] T.{ e $.K v.C.. = + = e ",
"y @.h b p R A F _ ) : >.,XsX4X= e *.,.p {.7.o :X&X: '.U.....D.>.7.J ] >X+XQ U.OX, n.Y eXV.0.'  .' ..] G | G H z # { C.$ = o & r ",
"y :.#.X.p M A 7 G g.q ;.k.+XsX= K uX9.>.R.= ~.uXt H.C.` C.B.6.V.oX[ t z n.Q D.nXe { { 3Xc.D.8 L ] L z t U i %.t . v 7.e = o = r ",
"p :.X.b H h.6.' p | U P ; [ yX< iXOX$ '.E.p yXn.G x.m.6.uX6X8 5.0X6.z J.lX5.K mXQ.] x 2Xc.D.h.%XI , G G J x e t $ i N.p = & & r ",
"h 2.o.X.i x.' R { / E ;.p x.6X>.eXH c n.!.6.).U.6.g.h.v.6X4X` k 0Xg.x 0.pXoXX U.cXtXK 9Xc.v.`.] y 0.J @ z E 0 z $ I A.; - + & r ",
"h J.o.b K B.` B.E G ] %.H D.pXG.,XK $.k.b.Y ~.I.I I H w.lXyXJ Q 0Xx.< {.lX@X> X x.tX*XdX6.#XA 6.U.E 1...U | [ J $ G N.p = $ ; r ",
"h 2.o.#.K XXx...e E ;.%.H E.iXg.tXt.K 7.6.' ].D.8.6.Q =XiXC.W W 2X .* pX7X  X D G v G 5X~.).g.*XZ.{ ] h.h. .B.G . z ~.e $ & & r ",
"X.<.- b +.V.v < c ] X.+.H w.iX! S.[.w.E W D.*Xg.) B.pXoXE D.0.v 5X'.n G.#X6.v.5.S.E.# <X=X_.j.7.v { J R 8.[ z . & I x.% & = * r ",
"X.2.= e p b.] ..| r O.,.H b nXoXq { Y.w.K { +X_ |.tX[.H o.*.,.I.$XY.Y.D.D.5X4Xz.1.0.@ 8X:Xm.j.V.z..X..R R J e p r U Q., % ; = f ",
"h :.= = t 6.I Z D +.K.+.< 4XzXx.7.0.$.I.{ ' 3Xk B.<XK 7.0.g ,.I.e i 1.J   h.+X.X: 8 . <X:Xc.c.9X*XC.h.7.U U :.X.r h h.i - = = f ",
"h %.= = y m.'   G G.K p :XyX{ , D.F.& T...E eXZ [ ^.<.>.' 7.R.7.z.=XF.^.=X-X[ I !.#XXXlX:XV.c.*Xb $.] E ] U X.= h < 7.q - r r r ",
"X.J.= e y w.$.G <.' o !.eX; ] J z r.y.U.{ >.yXL { ~.+.>.R `.=XU.j.h.z K { ..K $.>.>.7.tX;X_.j.~.0.D.%.>.P P y < r < { I H = < r ",
"p >.p = & ].,.p i J o `.oX, ] ,.F.K 9.!.R { 4X7 ~.=XA 6.'.S.J ^ ,X~.U z.N.Z._ g.n.G v ;X:X_.Q E U.D.,.%.H +., r X.-  XQ.& = , r ",
"g #.e . !.OXE U K J o ~.9Xt G x 9.%.S.>.{ 8.=X0.%X7.I n.K @ { U H.~.d.B.Z.~.u.B.%XU.`.tX$X).6.>.$.O.O.,.,.o.z e b - +XB.. , = < ",
"X.&.% % ,XK z H K ' + #XrXp I H x w.1.E e.v vX5X8 c ..`.W...7Xh.S.h.i ' ` 6.i K P y . Q.'.).V.U.+.l.K n +.y z y X.4 XXn.$ + & r ",
"g b - & 9.h.j.  e { o #XrXt ] /.H.G (.;.$ E 4XT.K W W !.4Xn.+Xw.l.B.d.B.XX9X~.H.F.Q Z 5X'.).W { B.XXx.p b x , r ;.u .Xt.. o = f ",
"r b * & 9.] [ k Q 7.o ~.aXe L L.L.6 0.+.OX,Xk.c r p p Q 6 k  .x !.n.H  .N.g.x ] G.k.] $X5X+Xc J 7.nXnXJ r +.#.r p u %Xt.. t ; f ",
"h n & $ D.] , J K U $ ~.0X, G (.L.  6 R.tX9.OX[ * x H aX*X7.,X7.%XZ.] ).,XC.i 0.G.J J :XcXC.T z U.CXdXR r *.:.y H V %XE.. + = f ",
"#.m & & 0.q.H r z E & ~.aXr t L.Y.  H.;XY.J -Xc p | t l...z g.D ^ L L R t t 7.p.| J E 1.U.e.T v I.R.E z $.%.e y P P ].I.  ; r r ",
"g o.K . R.d.e Z ) { $ ~.iXr p %.$.i H.Q.m.7 R.o.G n.{ n.x.).rXM.rX@XZ.V.' ' p.0.F.7.E x 9.I.x *.9.T K G %.+ & o.%.i {.e.% e , f ",
"h +.y % k.Y.p 0 I | . Z.0X; %.%.H J ' q D.7 `.G 7 i.| ' v I ' 0 ~.d.P U U ] i.{ b 1.E v $.T J e.W E T q x ;.L.r.&.= T.0.s r = r ",
"b #.y r ~.J.e i / I . C.9Xe L.H U B l...'.I ,X{ r S.L x.x.}.@Xz.,X~..Xx.H P p.c 7.k.I W w.T x w.{ o J E %.P.O.X.o.< w.Y.s , < r ",
"h b y p C.<.3.] G : . C.9Xz F.  E 0 ..0.$X' 7X1.o.+.   .z. .j.J =Xm.l.i.L / U { x.Z I K 8.7.U ] 7.{ G.1.,.&.$ %.0.1 D.[.% & < r ",
"X.+.r r 6.;.<.U U i   C.9Xq G.: ] e z z F.t `.y +.J M B.' '  .G ^.J . t p.I U ] R i S.S.[  .D.J x U...y *.r.1 y 2.#.v.R.$ < < r ",
"+.-.r y ^.>.3 U ;.3   7.qX7 h.4 U 3 7 I n.x %Xt ;.<.G l.| h.Z...>Xx.2.l.l./ U U I B p.] I h.{ ] S.8 { H X.&.b r 2.&.v.R.% = , r ",
"h +.e e $X>.o i u ^ .XzXqX. R i z u t Z h.H *Xp X.U 8 z , B , U  Xp.B | e p P G...Z ] k Z | ] } | P +.X.+.p +.h ;.K v.R.s , = f ",
"p +.= * Q.U.w.7 . B.ZXAXwX= h.i e P u z [ k *XP G ..o.!...l.' / ~.i.  G V %.P G.G.J : S.D.6 ' J.G +.:.H L.2.b X.2.G U.R.% r , g ",
"V +.= - h..X6.# # g.NXMXwX= p.q t I G :  .A *XU Z E 1 J U V t # #X .3 <X&X1.q h.] 8 ~.H.%.S Z d.2.X.K P J.2.#.O.0.L F.[.% y , y ",
"h +., 4 g.oX[     h.xXBXqX# ..q I 8 | e x.Z %XH ^ _ 7 [ } I P e ~.~. .7.Q.q i Q.E D G.8 G K i G <.1.B <...W E O.<.L I.'.% p r X.",
"h X.e 4 z.XX[ O   x.AXSXhXo  .@ ..i G U G.6 .XP ' [ .  .L M G P H.<.Z.' {  .h.G.K G + Z G.i H ;.P | %.;.| ..] n <.L Y.'.< +.p -.",
"p p u = g..XR > X  .SXnX0X+ I B I P ;.G z.8 ~./ ^ i.x W.} i . G.Y.3 l.n.C.J # ' ..R U | >.z H V u U +.@.%.E E O.>.i '.:Xg <.H @.",
"p x y * M.+X] @ 7 _ jXzXkXi ^ i ] 8 +.I B.7 ~.<.! g.e ..| = <.$XU B I g.p.x E  ...] | w.S.y p P H K X.o.@.h O.%.#.d =X5Xp 1.P +.",
"b X.r s @X+XY G # ` wXwXjX8 L i H.q : J U.8 .X;.I _ k ..p U `.6 # U G L G h.x.U x y h.F.o.8 t H H U %.O.+.X.X.b O.d ,XpXi ] H H ",
"X.+.e $ XX+X7.1.7 A jXBXjXO I / G.[.z   ] G XX] / '   ..+.7.Y C / J } ] U ' E P e & p ^.+.x t p o.U ;.P B H 3.:.=.< ,XlX' I z +.",
"#.:.p % .X@X7.8 . f.VXcXBX0 D ' G E  .8 I I .X] K 1.L h.H p u h.G.d.p.^ ^ L i ] x : x  X>.n #.H H ;.;.i H 2.K.@.o.r =XpXl...H +.",
"o.;.K d oX2Xh.# + Y MXBXjXO ` L L > 8.' { L Q.S.p = S.H.e z e T K i e H U | L # G p.J.&XS.$ b @.e +.] H r.2.p x E y 1XpXg.h.E &.",
"o.;.;.% *X,X[   2   N.BXs.@ S.. ] k._ Z <.q | ;.x L.K.O.H  .] G K x , ] p.S./ L i a G.&XH $ y &.o.U J +.o.+.p x K *XGXvXV.Z.0.q.",
"O.%.| ~.zXnXB.# G 2 Z f.O F.H 7 i ' Z D D.7 H r +.L.. & = 1...G P r i / ' G G ^ q u S.P * #.O.H a 2.G X.@.K.r.g ..FXZXxXCXSXeXr.",
"O.#.! HXFXAX}.+ 7 q ) ! 7.Y.# J k '   I k.8 P o.K o.% r $ X.L L p P } p.} ^ D S 7 2.b g g m 2.e i <.%.o.4.2.,.g G.FXkXxXFXZX0X4.",
"&.O.S gXcXVXeX  3 L i.D I.E # { [  . .i E i 1.+.r X.& & $ I G & y x B i P B i Z i H ;.r < h %.+.U +.p o.o.;.,.< h.SX,XoXqX9XY.4.",
"3.#.I ` 2 qXhX  w q x.D k.[ . P i [ x.8 U | J.&.&.;.3 z e ] P o L U +.& H +.< x U +.-.U H X.y K /.:.r p p x x % ..SX9X0.%.+.E *.",
",.O.K ` N hX0X  M /  .! m.n.H z t h.x.G K | H K L.;.  e 7 r r # o 2 S.] ' ;.< +.:.y H H P H t e -.X.o.+.o.y < % ..DX+X7.0.{ K O.",
"4.&.b ! w 0X9X  q 0 Z  .n.{ = & 0.~.!.t , K e L ] +.p $ . e X.. . q l.L I L V ;.;.H x & U P x V H m #.b X.y , $ 7.DX`.{ { E K +.",
":.%.O.x s rX0Xo = . L g.e.#.= . F.:Xw # 0.K.=.r.b O.%.b x X.+.G P H.] 3 i i P <.i = e x H p +.X.X.X.h y X.p , $ 7.DXD.+.%.E H X.",
"@.%.+.y s rXgXs %.g ;._ Y./.= e b (.] 1.K.O.j m b @.x +.;.U r O.;., o.>.<.K.K i   = e i = , P U / 3 # p X.b b * { xX>.X.o.U x b ",
"#.2.+.1 % eXqX. @ G { l R uXx.h...R 8.6.5.6.k.k.k.w.w.n.m.j.5.).%X`.].$X^.-.J J y e e i , . i G 3 u e y p = b < W lXx b o.c y g ",
"j ,.o.= % 9XqX. O q R  .  O ) 5.j.v.U.U.n.T.I.8.7.w.U.!.Y.I.U.n. .D Z G.q.V U ; P P + $ , o P ;.e t #.H b x b * [ pX< b b p 1 y ",
"j &.b = % 2X9X$ J U t %.p + q I ) [ D.7.7.7.7.7...{ h.G.D.D.D.0.o.r X.o.p r } 0 U / o , e p +.:.P P P y X.O.e $ 6.dX< g h g < r ",
"j #.x # $ 2X0X$ r 1 m f +.+.= a 4 P P $ = = = = o z G # # o i 3 u G = $ e = ~ 8 y G       , m ,   G ;.= p e e $  .dXr g d d - r ",
"f m r & $ 9XVX$ y y 1 < ; X.e e , P 1.+ - ; e i e P I G U p y G L G z 7 u ^ M.7 e H # 3 e , b e : G U r , = y . Y pXd < < < - r ",
"f d = = - S VXDXcXDXbX$.n n &.o.h &.+.p y - x X.b e S ' / | B i.i.M p ; = t l.u v x . = + % - : o H H = , e r + ) yX< < - - = e ",
"< s o = < a f.rXaXkXGX$Xd = h O.o.i r < r y < - , 0 q # 7 < , i 9   . # i M # . z v . r ; & d p . , t , y y t   Y yX& - & & & e ",
"- - + & * 0.7       dX5X% * < r z i & r p = t t i ^ I G } y V } } o , x.}.u.i 7 u.) 3 , = $ & & % , e 1 y y p = Y eX& = = ; & e ",
"- - # . $ ] Q.5.R   *XR.$ & . $ = - d p . . , 8   .   O M     + . . + u > # @ 3 ) D   o . $ . t y # # < < r = & [ eX& $ o o + e ",
"= % =   . ' ' q 8   `.0.$ & X.< $ = d i + & t L Z L M } u.!   S M.O a.( 7 u.u.( M.A.0 M 8 e $ P 8 # H & = , # . ` 3X$ + # # + e ",
"4 $ $     I 9       #X{ . < p U 9 3 * p # + e # # # e q 9 7   2 M.0 9 q 0 ~ N 7 Z 9 7 9 7 7 . U e # G . = r e . ` +X. + + + O e ",
"= . $ +   D 7       n.J $ $ e $.e 2 = r + . 7 A A q G B } 3   7 2 2 @ &   M i.e ^ S       o $ .   7 i . = r e . ' *X. + + +   e ",
". . $ .   C 7       6.G . t 9 1 - O o e   . 7 , . # = o 3 O   i , e p =     M 3 q G         . o   8 G ; $ e i   [ =X    #   + O ",
"y # - 4 # V i 3 # 3 7.o.= P B , y e e t i i i K e = b p # 3 e e y e , , e e # # e , 3 e # 3 = y f t V e e e p e J ~.= e e e 7 X."
};
