/* XPM */
static char *_2bfc44761ac4cb0ff3e46ce80b1c35dShACtZZlaPqqIK4j[] = {
/* columns rows colors chars-per-pixel */
"64 64 171 2 ",
"   c #010102",
".  c #050906",
"X  c #090B07",
"o  c #040709",
"O  c #060A0A",
"+  c #090D0C",
"@  c #0B100E",
"#  c #070F11",
"$  c #0A0E11",
"%  c #0D1313",
"&  c #0F1817",
"*  c #0F1619",
"=  c #0F1919",
"-  c #101515",
";  c #121916",
":  c #121619",
">  c #131B1C",
",  c #191E1E",
"<  c #16211E",
"1  c #151E20",
"2  c #181D20",
"3  c #162222",
"4  c #192425",
"5  c #1D2927",
"6  c #1B2728",
"7  c #1E2C2C",
"8  c #1E312F",
"9  c #1E2D30",
"0  c #1F3131",
"q  c #212D2E",
"w  c #22312E",
"e  c #212F31",
"r  c #233333",
"t  c #283536",
"y  c #253836",
"u  c #283837",
"i  c #253638",
"p  c #293739",
"a  c #263939",
"s  c #2A3B3C",
"d  c #2D403F",
"f  c #30403F",
"g  c #2C3E40",
"h  c #2D4242",
"j  c #314545",
"k  c #334846",
"l  c #324748",
"z  c #354B4B",
"x  c #384D4D",
"c  c #37504E",
"v  c #39524F",
"b  c #364F50",
"n  c #3A4F51",
"m  c #375152",
"M  c #3A5454",
"N  c #3D5957",
"B  c #3E5B5A",
"V  c #405A57",
"C  c #415C5C",
"Z  c #43615E",
"A  c #425F61",
"S  c #456363",
"D  c #496666",
"F  c #486867",
"G  c #466568",
"H  c #486769",
"J  c #47696A",
"K  c #4B6B6C",
"L  c #4D706E",
"P  c #4E7273",
"I  c #527474",
"U  c #517875",
"Y  c #557B7B",
"T  c #587B7D",
"R  c #5C8383",
"E  c #5F8789",
"W  c #5F8988",
"Q  c #638A87",
"!  c #628C8B",
"~  c #64928F",
"^  c #649292",
"/  c #6A9695",
"(  c #68959A",
")  c #679B99",
"_  c #6B9A9A",
"`  c #719E9C",
"'  c #6F9FA1",
"]  c #74A3A2",
"[  c #79A5A5",
"{  c #7EA8A7",
"}  c #7AA6A8",
"|  c #7EAAA9",
" . c #84ACAC",
".. c #88AEAF",
"X. c #88B1AD",
"o. c #8DB4B4",
"O. c #92B6B6",
"+. c #93B8B7",
"@. c #90B6B9",
"#. c #96BABA",
"$. c #9BBCBC",
"%. c #A1BEBD",
"&. c #9CC0BE",
"*. c #A2C1BF",
"=. c #9DBEC1",
"-. c #A0BFC1",
";. c #9EC0C1",
":. c #A5C3C3",
">. c #AAC6C6",
",. c #ABC9C6",
"<. c #A7C4C8",
"1. c #ACC7C9",
"2. c #ADC9C9",
"3. c #B3CDCC",
"4. c #B9CFCD",
"5. c #B6D0CE",
"6. c #BAD1CF",
"7. c #B5CED1",
"8. c #BACFD0",
"9. c #B7D1D0",
"0. c #BDD3D3",
"q. c #C2D6D5",
"w. c #C4D8D7",
"e. c #C3D6D8",
"r. c #C5D9D9",
"t. c #CCDDDC",
"y. c #D2DFDF",
"u. c #CEE2DF",
"i. c #D2E1DE",
"p. c #CDDEE0",
"a. c #D2DFE0",
"s. c #CEE0E1",
"d. c #D2E1E1",
"f. c #D5E2E2",
"g. c #D4E3E3",
"h. c #DAE6E6",
"j. c #DCE9E6",
"k. c #D6E5E8",
"l. c #DBE7E9",
"z. c #DFEAEA",
"x. c #DDE9EA",
"c. c #E0EBE7",
"v. c #E2ECEC",
"b. c #E8EEED",
"n. c #E7F0EF",
"m. c #E6F0EF",
"M. c #EBF2EF",
"N. c #E6EEF1",
"B. c #E9EEF1",
"V. c #E6F1F1",
"C. c #ECF1F2",
"Z. c #ECF3F3",
"A. c #EDF6F8",
"S. c #F2F6F6",
"D. c #F6F8F7",
"F. c #F3F7F8",
"G. c #F4F6F9",
"H. c #F8F6F9",
"J. c #F2F9F9",
"K. c #F5F9FA",
"L. c #FBFBFD",
"P. c #FAFEFF",
"I. c #FFFFFD",
"U. c #FEFFFD",
"Y. c #FCFFFF",
"T. c #FEFEFE",
"R. c #FFFEFF",
"E. c #FEFFFF",
"W. c white",
"Q. c #FDFFFC",
"!. c #FEFEFE",
/* pixels */
"r r r 7 w 7 4 7 r r 7 4 7 q 7 q 4 7 r r w 4 7 r r r 3 7 r r r r r r 0 r q 4 q r r 7 4 w r r 7 4 w r s y 7 e r q r 7 7 r y s r q ",
"7 7 q r q + 3 % 7 7 % 4 % 7 0 ; 4 % 6 r ; 3 ; 7 y % 1 ; 4 r r r r 7 r 6 ; 3 % s r & 4 * s r % 4 ; r r ; 7 ; r u ; 4 ; 7 u r r r ",
"q 7 r 9 + ] g._ + $ ^ a.| % $ R g.o.; % P g.#., $ C i.,.4 q r r i r 9 > O.d.Y $ ;  .d.! % % ] g._ + % / d.| % % Q d.O.4 q r r y ",
"7 r r ; r T.T.c.% + v.T.C.q   q.T.T.r   9.T.T.k   <.T.T.S + r 7 r r ; j T.T.d.  r T.T.d.  3 J.T.S.1 + x.T.Q.s   d.T.T.N % r e r ",
"7 r e ; s A.T.d.& ; k.T.k.r   3.T.F.g   :.T.T.m   ;.T.T.S + q r y 7 ; z L.T.t.O y A.T.q.+ 9 v.T.N.7 % s.T.Q.j   0.T.T.B % r r r ",
"r q 7 > s C.T.d.= ; t.T.b.7   3.T.A.h   &.T.K.z   +.T.L.B $ r r r r ; z D.L.r.. q m.T.0.o 4 x.T.l.4 ; r.T.J.h   0.T.T.N % a s r ",
"r r r ; h A.T.k., & k.T.N.r   3.T.C.h   :.T.D.z   *.T.L.C ; r r q r ; c Q.T.r.O r Z.T.q.+ 7 x.T.x.6 + t.T.K.j   0.T.Q.S % r r r ",
"r r r > r T.T.x.% + v.T.J.4   0.T.T.s   3.T.T.c   :.T.T.S # 7 e r r % j T.T.s.o w T.T.t.O 4 Z.T.Z., + z.T.T.a   r.T.T.N & r w r ",
"7 7 q w O [ c.' O + ( c. .% X R v.@.; + I v.<.3 @ S z.3.6 7 q r r r 4 & =.v.R + ; o.v.^ % @ } v.] % % _ v. .& % ^ b.#.1 r r r a ",
"r q r r r     . y t       y s +     r s +     7 s $     4 r r r q 7 r q     . r 7   . O s r     . a g   o   y d %     r s r r r ",
"r 0 r r ; k _ m , , z / m , 4 j _ S 1 3 u / K , 4 w / T , 0 r r r r r > S / s 3 , C _ j 3 , M _ z , 6 z ) m , 4 s _ D 3 r q r r ",
"e r r 4 & t.T.t.% . 0.T.x.&   3.T.L.q   o.T.T.s   [ T.T.z - r r r r 3 7 L.T.4.o , m.T.5.  , l.T.l.> . r.T.N.4   :.T.T.g ; r r y ",
"q y r > a V.T.N.4 ; x.Q.Z.r . t.T.T.x   3.T.T.C   =.T.T.P o r r r r ; z G.T.l.% r K.T.t.o r Z.T.L.a @ k.T.T.z   0.T.T.K + r r r ",
"7 r r , r l.T.k.3 % d.T.v.7 o 0.T.K.j   :.T.K.b   o.T.T.H O y r w r ; h C.T.t.+ r V.T.0.o 7 v.T.V.r % r.T.D.j   3.T.T.H $ r r r ",
"r r r 3 4 x.T.k.> % t.T.v.6 O 0.T.L.h   :.T.T.z   o.T.T.H + q r r 7 > h S.T.t.+ 0 b.T.q.O q v.T.V.r $ t.T.L.h   7.T.T.S ; w r r ",
"r 7 r 4 q l.T.f., & x.T.S.r o q.T.Z.j   2.T.T.N   @.T.T.G + q 8 q 7 > h S.T.t.O r J.T.g.+ 7 c.T.V.r % h.T.T.z   3.T.T.S % r r r ",
"r r e , r z.T.j.5   ,.T.r.+ @ e.T.C.j   } T.A.9   O.T.T.G + r 7 q 7 > g J.T.t.% % k.T.$.  r v.T.V.r   2.T.r.> + 3.T.T.Z % r r r ",
"r r w , 7 c.T.d.7 & y T j % % e.T.D.j % r R B > . o.T.T.H + r r r q , j Z.T.p.4 ; z R r ; y v.T.Z.a % s R j 3 % 3.T.T.S % 0 q w ",
"q r r , 7 v.T.k.7 q .     q > q.T.F.z 3 %     7   o.T.Q.S + r y r r * h C.T.t.5 7     + 7 r v.T.b.s 4 O   o y ; 3.T.T.S % 7 q r ",
"q 7 9 , r g.T.c.7 o ! f. .% % 3.T.L.j o F d.:.<   O.T.T.S + r r w w > s A.T.s.3 + } g./ o r x.T.b.a o ^ g. .* + 2.T.T.S % r t r ",
"r 7 q 1 y x.T.l.7   d.T.L.q   0.T.T.z   <.T.T.B   #.T.T.L o q w r r ; j L.T.l.% 3 L.T.x.+ w m.T.K.s   l.T.T.j   8.T.T.K $ r r r ",
"7 0 r 3 ; x.T.j.$ + r.T.Z.y   q.T.T.s   =.T.L.S    .T.T.B + r r r r > w T.T.t.  w V.T.a., ; Z.T.m.> $ r.T.T.m   3.T.T.m > r r r ",
"r r i w $ K $.I + ; 0.T.N.r X C $.! *   $.T.P.C O h #.| 3 7 i 7 r w r > ! $.C + r b.T.t.3 % T $.L + ; q.T.L.z O C -.~ 1 r r r r ",
"r 7 r r r       0 ; w.T.V.r 4       q O #.T.T.V , %     5 s r r r r a r       6 i v.T.p.4 q       r > w.T.L.z 4 .     7 a r r r ",
"q r e r % ! e./ + - r.T.Z.r o I w. .; o #.T.Q.C o C q.#.4 7 r r r r 7 , o.w.P $ r c.T.t.2 O / q.^ + ; e.T.L.v . Y q. .2 7 p r r ",
"r 0 q 3 r L.T.m.* + 0.T.C.r   q.T.T.r   +.T.T.B   <.T.T.Z + r r r q & h T.T.d.. 7 b.T.t.% & S.T.Z.; + e.Q.K.k   w.T.T.N & y r r ",
"e w r ; h D.T.d.3 @ 0.T.V.r   3.T.K.j   #.T.T.N   <.T.T.D @ r r y r ; M L.T.t.+ 7 b.T.t.& 7 c.T.c.q + w.T.Q.j   q.T.T.S % r q r ",
"r r 7 ; s m.Q.t.> + e.T.N.r   7.T.Z.s   $.T.T.N   =.T.T.S % r r r i , z L.T.r.+ 7 c.T.s.: 7 x.T.v.7 + r.T.Q.l   0.T.T.C % r r r ",
"r 7 7 , h b.T.d.> + q.T.M.r   5.T.A.h   $.T.T.B   :.T.Q.S $ r 7 q r > x L.T.r.+ 7 v.T.u.% 4 c.T.j.7 $ r.Q.Q.z   0.T.T.S % y w r ",
"r q r , r K.T.B.; + t.T.T.s   e.T.T.s   <.T.T.S   1.T.T.J $ r q 7 w ; z T.T.k.. 7 Z.L.l.- 1 A.T.Z.3 $ d.T.T.v   t.T.T.C % i r r ",
"r r q 7 @ o.A.| + . o.T.q.; o ~ S.:.% . ` T.V.w + K A.r.7 7 q q r q 7 3 >.A.^ + & 3.T.%.o + o.F. .+ + #.T.t.6 . / A.1.4 7 q r r ",
"q q r r 7 ; q ; q 7 5 v r 5 r ; y 4 6 r 6 m y 3 r ; r 6 4 i r r r e r 7 1 r % r 7 r N 7 7 r ; 7 , r 7 7 m 9 4 r , r = 4 y q q y ",
"r r 7 8 r + + % r q % q ; 7 s % % $ r s > 7 & 4 a > % $ 7 r r r w 0 r q % * % u q ; 7 , a r + % * u r & 7 ; 7 s , % O 7 r r r r ",
"r 5 r 7 $ ` d._ $ O | T.<.% $ Y g.o.; O W T.t.q % S d.:.4 7 r r r r 7 & O.k.U $ % :.T.o.$ % ] l.^ % +  .T.2.> $ R k.X.; r r r r ",
"e r q , 7 L.T.x.% X k.T.L.r   0.T.T.i   >.T.T.C   <.T.T.B % r r r r * j T.T.y.o 5 K.T.j.+ , A.T.V.; + l.T.T.c   r.T.T.v & r r r ",
"q r 7 ; s S.T.g.1 + e.T.M.y   0.Q.L.j   $.T.T.B   :.T.T.H + r r r r : z S.T.i.+ q N.T.d.% 3 v.T.c.7 + w.T.T.z   0.T.T.A % y r r ",
"q 7 w , s M.T.d.> % r.T.V.r   3.T.S.s   $.T.T.N   $.T.T.A + r r r r ; z C.T.r.O 7 c.T.t.% 4 l.T.l.4 + q.T.T.z   0.Q.T.C ; r t a ",
"r r i 3 h S.T.g.3 + w.T.N.r   3.T.K.s   $.T.T.N   $.T.T.H % q r y r ; b L.T.r.$ q b.L.r.% 3 l.T.x.7 + r.T.Q.z   0.T.T.S ; r r r ",
"r r 7 > r T.T.b., + r.T.x.r   e.T.T.s   #.T.T.B   3.T.T.D $ r r r q ; j T.T.k.. q N.T.t.+ , S.T.J.3 O 0.T.K.z   t.T.T.C % r r r ",
"e q r 7 - { c.[ O % e.T.B.a o Q x.+.; o #.T.T.C   K j.0.7 4 r i 0 0 7 , :.c.Q + q z.T.a., +  .c.} % & e.T.L.m   ! v.-.4 7 r r r ",
"r r r r r       7 ; q.T.b.r 6       e O $.T.T.B ; %     6 s r y r r s w     o r r v.T.g.4 r       r , r.T.L.M 3 O .   w s y 7 r ",
"r r r r : n ] B % > q.T.V.s % z } I , O $.T.T.C $ y [ E 2 r i r r y r , K [ z % r c.T.t.3 & S } B ; 4 w.T.L.M % z } I , y r r r ",
"7 r r 4 % u.T.d.$ % e.T.Z.u   3.T.T.r   $.L.T.A   } T.T.m + 7 r r a 3 , Z.T.3.  r x.T.d.; % v.Q.k.% % r.T.T.x   <.T.T.h , r y s ",
"r 7 r 4 r C.T.v.4 . h.T.T.r   r.T.T.z   3.T.T.B   $.T.T.I O r w r 0 ; k L.T.x.% 6 K.T.b.O 7 Z.T.D.y   k.T.T.c   q.Q.T.K O w r r ",
"r q r 4 7 l.T.x.7   ] S.-.% % 0.T.K.j   E Z.0.4   o.T.T.K + r y r q ; h A.T.t.3 + #.S.} o r x.T.V.s   [ A.<.3 + 3.T.T.S % q r r ",
"r q 7 , 7 v.T.g.q 6 % ; % q > e.T.K.j ; ; & % 7   o.T.T.K + r r r r > h Z.L.t.4 7 ; > : 5 y b.T.V.h 4 % > - 7 ; 3.Q.Q.D ; r r r ",
"0 7 r , t l.Q.g.7 1 3 N 4 , ; 0.T.A.z ; 3 N y 3 . o.T.Q.L % w e r r , h D.T.t.5 > q C 4 < r v.T.C.g > 7 B 7 3 ; 3.T.T.S % r r y ",
"q q 0 ; r l.T.j.6   o.T.2.# % 0.T.D.z   _ T.k.4   O.T.T.H O r r 0 w ; h C.T.d.3 + 3.T. .  r v.Q.V.r   #.T.7.; + 3.T.T.Z ; s r r ",
"r r r < e v.T.x.4 % b.T.K.r   6.T.K.j   7.T.T.B   O.T.T.J + r r r q , j V.T.p.+ r Q.T.d.. 7 v.T.V.r O l.T.T.z   3.Q.T.S % r r r ",
"r r r 4 7 l.T.l.1 ; d.T.z.q   q.T.H.j   :.T.T.z   O.T.T.K + r r r r 3 j S.T.t.+ q Z.T.q.O q c.T.V.r + t.T.K.j   7.T.T.S % y r r ",
"r q q < q x.T.l.4 ; y.T.x.5 O 0.T.L.j   :.L.K.z   o.T.T.K + r y r r ; d Z.T.y.% r Z.T.q.O q b.T.V.r % t.T.J.j   3.T.T.D % r r r ",
"r 8 r 3 i v.T.b.4 - l.T.V.r + r.T.L.z   2.T.T.m   $.T.T.I + r q q 7 ; j K.T.g.% r G.T.r.o r V.T.K.r + s.T.T.n   0.T.T.J % i r w ",
"q 7 q 4 < l.T.v.* o a.T.Z.>   0.T.T.a   *.T.Q.s   ..L.T.C $ w r e e 3 r T.Q.t.o 4 L.T.0.  , Z.T.V.3 O a.T.L.r   3.T.T.z ; r y a ",
"q q 7 r > D o.K ; > Z o.P ; ; B o.Y , 3 z o.! 1 < a o.] 3 r r r 7 w y > R o.N , , Y o.C , > I O.K ; , S o.K ; 3 N O.Q 4 r a t p ",
"0 r r q s       r s       t s o     r s +     7 d $     7 s w w r r r r       j s     o j h       h s       s h o     r s r r y ",
"r r r r $ Q e.E % + T q._ % % K r.[ % @ S r. .> ; B w.#.1 r y r r r r > | r.K & & ' r.Y % % ^ r.R % * R e._ - * P r.} > r r i y ",
"r q 7 3 7 K.T.l.+ . k.T.S.<   0.T.T.r   ,.T.T.j   %.T.T.B % r r q q , h T.T.r.  7 L.T.t.  ; Z.T.N.& X l.T.T.r   r.T.T.n > r r r ",
"r q 7 ; f K.T.l.> > l.T.V.w   6.T.D.j   <.T.T.M   >.T.T.S + 7 r r r ; b T.T.t.+ y C.T.t.O 4 x.T.v.7 % d.T.T.j   q.T.T.A % r r r ",
"7 q r ; s A.T.r.& % d.T.c.r   3.T.A.s   <.T.J.z   $.T.T.C % r r r y ; h D.T.r.. i M.T.0.+ 7 l.T.l.7 ; r.T.K.j   0.T.L.C ; r r r ",
"7 7 r > d Z.T.t.; ; d.T.x.q   7.T.S.j   <.T.K.m   $.T.T.S + 0 r r r ; k K.Q.t.+ r C.T.q.% e v.T.v.7 $ p.Q.T.z   q.T.T.C ; r i r ",
"r r w , s Q.T.M.% + c.T.D.q   r.T.T.h   3.T.T.N   3.T.T.K + r r r r ; z T.T.l.. y T.T.d.. 6 F.T.F.4 + c.T.T.j   d.T.T.Z % r r a ",
"7 r 7 4 % o.V. .+ $ } C.#.; o / A.:., + E A.5.5 % I C.t.9 4 q r r i q 3 3.M.^ + , $.A.] + ; O.Z. .% % | Z.#.2 + _ Z.2.4 w y r u ",
"q e 7 7 7 ; s ; q w , s 3 7 r , s 4 7 r > s 4 7 u > s 5 4 r q r r r r 4 4 s ; r q 4 s ; y w > s > r r ; s 3 7 r 4 s , 6 r r i r ",
"r q r r y q 3 7 r r r , 7 r r r < 7 r i w , 4 r r r 1 3 y r 0 r r q r r 4 > q u s q , 7 r a r 3 r r i r 4 7 r r q 3 q r r r r r "
};
