/* XPM */
static char *_a025581b7944689c091996cfad30641NuJO9LLKJ2sD9IoP[] = {
/* columns rows colors chars-per-pixel */
"64 64 173 2 ",
"   c #020203",
".  c #0A0907",
"X  c #060709",
"o  c #060A0A",
"O  c #0A0C0D",
"+  c #0D110F",
"@  c #0C0E10",
"#  c #0E1213",
"$  c #111415",
"%  c #141816",
"&  c #131719",
"*  c #151B1B",
"=  c #191E1E",
"-  c #17221E",
";  c #1A211E",
":  c #161E21",
">  c #1A1E21",
",  c #172123",
"<  c #1C2323",
"1  c #1F2826",
"2  c #1F2729",
"3  c #1F2929",
"4  c #202626",
"5  c #212926",
"6  c #212528",
"7  c #232C2C",
"8  c #292E2D",
"9  c #26302F",
"0  c #28332F",
"q  c #262E30",
"w  c #282D30",
"e  c #263231",
"r  c #2A3434",
"t  c #2E3836",
"y  c #2D3738",
"u  c #2E3A3A",
"i  c #313A37",
"p  c #323D3C",
"a  c #34413E",
"s  c #343F40",
"d  c #354342",
"f  c #394545",
"g  c #3B4946",
"h  c #3C4648",
"j  c #3D4B4B",
"k  c #3E514E",
"l  c #3F4D50",
"z  c #3E5150",
"x  c #424846",
"c  c #414E4D",
"v  c #42514F",
"b  c #424F51",
"n  c #445453",
"m  c #495656",
"M  c #455857",
"N  c #495956",
"B  c #465659",
"V  c #495759",
"C  c #465958",
"Z  c #4B5C5B",
"A  c #515E5D",
"S  c #4D615E",
"D  c #50605F",
"F  c #4D5F61",
"G  c #515F61",
"H  c #4E6161",
"J  c #526564",
"K  c #556966",
"L  c #536668",
"P  c #566A6A",
"I  c #5A6D6C",
"U  c #57706D",
"Y  c #5C716E",
"T  c #5B6F70",
"R  c #5D7372",
"E  c #5F7875",
"W  c #5F7779",
"Q  c #5F7979",
"!  c #617674",
"~  c #627976",
"^  c #627678",
"/  c #647B7A",
"(  c #697C7B",
")  c #67807E",
"_  c #6A817E",
"`  c #6A7E80",
"'  c #678180",
"]  c #6B8481",
"[  c #6F8582",
"{  c #6E8384",
"}  c #6C8484",
"|  c #6E8685",
" . c #6C8382",
".. c #6F8886",
"X. c #6F8988",
"o. c #6F8C8A",
"O. c #6F8B89",
"+. c #718686",
"@. c #728A87",
"#. c #708A87",
"$. c #718689",
"%. c #708A89",
"&. c #718B8A",
"*. c #738B8B",
"=. c #748A88",
"-. c #748E8B",
";. c #718B8C",
":. c #758F8F",
">. c #748D8C",
",. c #788E8B",
"<. c #75908D",
"1. c #7B918E",
"2. c #768F93",
"3. c #779292",
"4. c #7B9491",
"5. c #7A9595",
"6. c #7E9794",
"7. c #7B9493",
"8. c #7D9A96",
"9. c #7B9798",
"0. c #7F979A",
"q. c #7F9999",
"w. c #7E9999",
"e. c #819795",
"r. c #829A97",
"t. c #839D9C",
"y. c #869F9C",
"u. c #839C9A",
"i. c #889C9B",
"p. c #86A09F",
"a. c #8AA19F",
"s. c #8FA3A1",
"d. c #8EA7A6",
"f. c #8BA3A2",
"g. c #91A6A7",
"h. c #90A4A3",
"j. c #91AAA7",
"k. c #91AAA7",
"l. c #92A7A8",
"z. c #93ACA9",
"x. c #96ABA9",
"c. c #9BAEAD",
"v. c #9BB0AE",
"b. c #9AAFB0",
"n. c #9CAFB3",
"m. c #9DB0B4",
"M. c #9FB3B3",
"N. c #A0B4B3",
"B. c #A2B4B4",
"V. c #ABBAB7",
"C. c #A9B7B8",
"Z. c #A8B8B8",
"A. c #B2BDBF",
"S. c #B9C7C7",
"D. c #BDC9C5",
"F. c #BBC9CA",
"G. c #B4C4C4",
"H. c #C2CDCD",
"J. c #C7D3D1",
"K. c #CDD6D5",
"L. c #CDD7D8",
"P. c #CFD9DA",
"I. c #D3DCDB",
"U. c #D7E0DF",
"Y. c #DDE3E5",
"T. c #E4EAEA",
"R. c #EBEEEE",
"E. c #EEF0ED",
"W. c #E9EEF1",
"Q. c #EDF1F2",
"!. c #F1F5F5",
"~. c #F7F9F8",
"^. c #FEFEFE",
/* pixels */
"R 3.| =.] | *.| *.*.;.#.n  .n.k.l.f.g.| I | { *.;.$.X.o. .^ / ! +.4.-.5.0.0.q.6.5.5.q./ -.N.b.z.f.m.9.C *.5.3.>.2.[ ! [ #.{ -./ ",
"w u r r u r q r i r r K a f L Z n m Z j Z f 7 r r r r q p p 7 r r 7 f j r i p y p r j K n J Z C Z P m p I u r d p q e r e r p e ",
"n a e s R / Z e 7 7 = L f c E I I K I C J r = e 7 q q , i i , r p 3 f j 7 r e r r = r P Z E R I R / C d P < 7 q r K ( R j r p n ",
"V v Z *.y.y.t.L 7 a 2 L d j ^ I T T R m J p 7 r r R R K J Z J j g T I ^ ^ ^ / d r e p I S ^ R W W ^ Z s K 7 p e L d.g.d.4.H n Z ",
"n n I I f c I I f e q P s n ^ T I P P m J f 7 r y I R I I R S p p P ( W W / ^ i r r f I F ^ I W W E Z p P r r d ^ I j g U E C n ",
"b c m j < 7 n m j d q K f c  ./ ^ R W Z I u w d p L I J K R J p i D ~ I P / K r f r u R Z ( / R ^  .C d P r d l H n 7 < j A j c ",
"c f < C 8.=.m < p r j I 7 n n p p p k v C H 7 7 y P ~ Y C V P d r G F H I ( R r 7 7 Z H c C u r i j Z 7 J n r d 7 j / 6.K , a c ",
"m c @ < ../ : $ 7 C ~ 7 < C q 7 7 7 r c & D K , u R ! I J Z P f u P P S K R ^ d , I P $ b p < 7 q 7 Z 7 4 / F 7 $ # K 4.e o a c ",
"c n r O X X @ = n ~ 7 @ 7 N p f j d d M & O Z / r r f p c c i f f a n j p a r r ^ P # $ C j d j d i Z y $ 2 ^ V = + o o o r j v ",
"v n f r 7 7 < m ) <   O # m p d d i d n O X   S ^ r y p p 9 = f g 4 7 p t r 7 ~ Y o X O v j p f d u Z = O   = ( H 7 7 7 e f Z C ",
"c p t p s r C W < & 7 , 7 m p d p t p m < < < o n / d r V ( #.S N _ ( Z r p ( J # , 7 = m f p f f p C r < 7 & , W L r d d p p c ",
"d < = & p n P 6 & e e 7 7 M u d d p d C < 7 7 < O n R u H f.h.H C r.u.P e Y Z @ , e 7 < m f u f f u Z u 7 r r > = I Z d < > , p ",
"m 1.[ I u / u = d f d u r C ! R R / / C r p p p 7 * K Z d R Y j g P I d v I = 9 d p i e n ^ R R ^ ! L i r d d d < e ( p P #.4.Z ",
"m P.~.v.> Y i u f j g d p C y 3 6 4 d Z p f g f j 7 n S r g f p p d f w m Z e f j j d u C h < 6 2 r H f d g j f d y R < u.^.T.J ",
"c K.^.z.= I e # $ $ $ $ & n r I ) m r n # $ $ $ $ # H L 7 r r r r r r < m P & $ $ & $ O n u n / ^ r m < $ $ $ $ $ 3 ^ = 5.^.T.C ",
"c Z.J.-.: T r $ * = = & , v d =.q.Y r c & = : , = $ A Z d ~ E h g / ^ a m I = * ; = = & v i Y t.<.d j < $ , , = $ 7 R ,  .J.G.m ",
"c P R j 7 P i 7 i p p y r f t Z N c r m r u p p p 5 m n d V z h j n n s m P 7 y t u r 7 n r c H N r b p 9 p p u e u T 7 g R I n ",
"n { -.Z 7 H p t f f d a p c 9 f d r r C p d f a d e Z H 6 L / p r ~ P < C L r d d d d r C r r j d 7 n d u d f p u p P r Z #.( m ",
"n P R v e H p p c n j f f Z 7 7 r 7 r Z g j j j v i S Z & V.Q.p 7 Y.H.= n L u z n n n d Z i < r e 7 M g f j c f f p L u z T L n ",
"c P W C r P y = < 4 4 = , n u J ~ Z u m , , < < < & L C r o.e.f d 5.-.p j P < < 6 7 < = m u m ^ I i c 7 , < < < = 7 P u n R K C ",
"g P ` Z r I e O # # + O & m u Z P v t n # # # # # # J C 7 T ^ e 7 Q W 8 j I $ O $ $ # O c d j L S u c > O # $ # @ 7 I r n ^ P n ",
"j I / C e H p 7 p p r r y m p b n c p m e p r r p 5 m m u >.r.j f r.4.p j K 7 r p p t 7 n p f m j r n p 9 i p u r r L r n ( I c ",
"n I / C r K d p f d f d a C t p j r i m u d d f f 9 Z C d I R n n I K d j J r d f f p e C p 9 j u 9 n p t p s d p u H y n / I c ",
"g J / C r L p f v v n j f C 7 a ! r 9 C f j n j n i H C t Z J f f Z Z p j J u v j j j p C t 7 J d < j d d g j f d i L r l ^ P n ",
"c K ^ C r P i 7 p u p r t j n n r n C n w u p p i 7 J n r +.5.j j 5.5.d f K 7 p u p u 7 n m g 0 c j f t e t r r 7 r L u b R P n ",
"k P ^ Z r T 8 o @ # # O # f I T f I I f O O # # O @ P n 9 P R d s T R u j I & O # # O O d K C f K H f & o @ O O o 6 P u n W I n ",
"h f j p r R y , e r r q r g K K p J A a 7 e r e 7 < H C & I *.7 < | R > c P < 7 e e q < f J C t J C d e < 7 q 7 < e P r 7 f d f ",
"j Z P g q R s i f f f d d g ! ~ p ^ K p p d f f d 8 Z C < ( t.r 7 r.>.3 j K e d d a u 9 d K P r K J p p r i p p r y P 7 r H C g ",
"j u r 7 p R f f n n n j j m c C m m g j h n n n c r Z C 7 p u q 7 u u 5 c J r g b f d d c c f h c p j f a g j j f p P i 4 e e j ",
"j q 7 < p Q p p n n v g f J = 7 Z = < C d j n z c 9 Z Z 7 N Z r e C m < f H 9 f j f d p N 7 $ c 5 # m d i d h d d u I p = 7 7 f ",
"f r y < p  .r # & & & $ = Z s p n r d n # $ & = $ + D H 7 L ( y 0 ! P 4 v J $ $ & $ $ O j d 7 f r e n = @ # $ $ # 7 R p > r 9 f ",
"c y r < d ` r % < < < = < Z s p c r d n & = , , = $ Z H 4 y d r q p p < C L & & , = % $ c d 7 h p r c < $ = = , & 7 R f > 7 7 d ",
"j C C p d ( f r f f f d d Z e r v 7 u C t p d d d 7 n c c 4.4.m d 4.t.m d H e u d s u e m u 7 n p < n p r y u d r r P d 9 f j d ",
"f K ( f i ^ d d c n c g g m g h d j j C f g j j j r Z d m R.Q.L f Q.!.K r K r d d f d p k g s h f i j f d p d h s r P u u P Z h ",
"j P ) c p R d f m n m c j h 4.5.Z f.[ g f j m B V u Z d c !.~.Z h !.!.Z y L r j c c j d f R 5.C ]  .j j f f j j f p P u u I H c ",
"j X.B.Z r E r < 2 < 4 < 3 J 2 d -.u e C = < 6 6 < = J d j T.Q.Z d W.T.C e L = < < < < = m y 7  .j > C 7 = , 4 < = 7 Y e a x.{ j ",
"c Z I i e ( e o $ $ $ @ = J = d 4.q 6 Z + @ # # # O Z c r ( | p y ( ( i i L $ O $ $ @ O m e < X.j # C = O $ $ # O 1 Y u e J m h ",
"c Z T C r R i < a d d u u Z y j I g u Z r y p a p 1 n f p X.;.f d _ _ d p J 7 e u u r 7 m p p I n e n p e t u u q r K r c Y H n ",
"j I ] Z u P p r g f f d d Z e f ( c y C r d f f g e n j i P R f d R ^ f f S e s d f p r M i p ( C 7 C f p d p f s r J p v _ ~ C ",
"c m M p p J p d n n j j j Z w j ^ g r C a j n b l r n j u I P p d I Y s p C t c c b g t C y r W m 7 m j f j g j g u P f p c m n ",
"b W ..N r J r e p p i r t C r j S d r m r r i u y 7 Z j t / ^ d d ^ ~ p p Z 7 t u i e 5 m p t H b 7 n u 0 r r r e r P p m _ Y m ",
"c R [ N r I 7 O # # # O $ C r g J s p m O O # @ O @ H j r ^ ~ h p I ! p d K # o # @ O . j p t L j 7 n = o # @ # O 1 R u v { I m ",
"f j n r e R u 7 r e e 7 e M r c P g u m 7 7 e 7 7 < C j i ^ ~ f a I Y p d S < 7 7 q 7 - n t p L n 7 n t 5 7 7 7 < r Y u 7 n n g ",
"j C R j e R p y f d d p d m e v J f u C r d d d p 7 Z j p R R d p R I r d C 7 i p d s e m r t H m 7 m d u d d a t r I r a ^ K b ",
"j n I r r P p d n v j g g n r L I Z r m s g b c f e C j p R R f d R Y p f S r f j z h p n r n L K i n j f j c j p u K p e R C h ",
"c > # $ d P p u j j f d d m y H Z F r n p d f f j e C j s  .| j f _ { j d Z e f f g f p n 9 C C L a z f a j j g p t L j & # = j ",
"n f 7 7 d E e O $ % $ @ = n q [ t.Y 7 z # $ $ $ $ # H n 7 j j y r g f 7 f J & $ $ $ $ @ j 7 L r.1.r c < # & $ & # 7 R j e 7 p n ",
"c I I j d / 7 $ = = = % , c & M.^.[ * h $ & = & $ $ H z 3 Z J e 7 Z Z 4 d L & $ & & * $ j ; R ^.S.# j 7 % = ; = & 7 R d j R I v ",
"n n c u a ^ p e a d p r p j 7 R r.Z < c r u p i u 7 Z n 1 f h e 7 f f 7 f S 7 u p i u r n ; m a.! < j d t d d d u r J a i m m j ",
"J c.N.=.p I p s h g g d d j 7 C C f 7 j i d f a f e Z C , = = 7 7 > , & n Z q f f f d i m < d Z m 7 j g d f j f d p U p _ c.v.I ",
"L a.i.( d W r u j c j h f M 7 c H s 7 m s d f a f < m L > r r 7 7 y t % C H 4 a h j f p m 9 r Z n 7 n j f g g f t 9 ^ h Y r.f.I ",
"C J Z j e W n # < < < , 4 r 2 # + & 5 q = > = > & < R n < r p r 0 p p < j Q q $ , < < * < 7 & O # < r 7 = , < : + h / y j Z H C ",
"n c j f r r ^ u   o @ o   m 7.5.^ -.<.m   o O   # I m 7 p r e i t r y d 7 j R *   O X   j 4.q.) 7.4.Z X O @ o   r / u r f f j n ",
"m u 5 e c t 9 ~ C < 7 5 O K.^.K.!.Y.^.K.o 4 , q W m & e 7 u a 7 7 f i 7 r & j / r < 4   D.^.T.^.L.^.R.* < r = c { i 7 z u 7 y m ",
"H n i C r p 7 7 W m 7 e , I.!.p m m ~.I.* < r P j > m R l 7 e r t r 7 g R J 6 d R p 7 & H.^.S C t T.!.7 e r n R r < a r Z g v Z ",
"m K L P m H I f 2 P N = & K.^.C.P A.^.I.o 7 K s * Z 5.x.5.n r f d 8 n 5.M.r.L 5 p Y u   H.^.H.T c.^.E.5 & n R 7 d Y H C K K P n ",
"v P { R R ^ ) Z 7 e K p + p.H.K.H.U.F.6.& n d , h I I F L R n p p j W T S P Y m 3 d Z $ ,.F.I.J.I.H.c.= r P u 6 m ) / E K R T k ",
"n H R R L T W j i u q K 7 b K Z J Z L n c f 6 p j m y < p Z j d d f J f < r n v f 7 f m m I J L J Y m 7 L r r s f T R J K Y L m ",
"n L L Z L R ! j 7 p < m u Z R H I J Y K c u y i < d T H L p 7 d d 7 p I I R j 7 p p p M Y  .P R P / J 9 H 7 p 7 d R R J S L K m ",
"n T W P R E ( C 7 r 7 m 7 C ~ K P J R J j p u p & # L u.n O , f j 3 O n k. .* & a p d m P [ T ^ R ( S 7 G r t 7 n ( ^ R I R Y n ",
"n m N m v c m d r p 9 m r m ~ J P P W Z k i 7 p 7 O @ 7 O O r f j p # X w & O 7 p r u n L  .^ ~ ^ ` D e C y d u f m n n Z C n n ",
"N p 7 p , 7 8 7 7 7 & V r j R J L P R Z z e & 7 u r $   % e u u p d u > o & r u r > 7 C A ( W R R / J 0 D < 7 7 9 e 9 6 g p r m ",
"S =.R R Y P P R R C N Y 0 n ` P I I R H n C M J ^ ^ I Z L P L P P I ~ ^ R ^ ( / I L P J Y | ^ ( ^  .L r I S I E ! I R W / ! o.K ",
"f C n c m c c c C n x j r h C n n n m d u j n n c l b n l j c j b B n n m m n m C C n d j Z C C m C b r d m Z Z n g v C n c Z c "
};
