/* XPM */
static char *af02d819063342b0cb7e17f61a9287cbgRtJRv6gQT4UqEmi[] = {
/* columns rows colors chars-per-pixel */
"64 64 178 2 ",
"   c #020202",
".  c #080607",
"X  c #060907",
"o  c #080A05",
"O  c #060709",
"+  c #09070A",
"@  c #060A09",
"#  c #0A0B0C",
"$  c #0E100F",
"%  c #0D0F10",
"&  c #100F14",
"*  c #0E1212",
"=  c #121515",
"-  c #121917",
";  c #131619",
":  c #151B1B",
">  c #191E1E",
",  c #17201F",
"<  c #1C211F",
"1  c #171F21",
"2  c #191E21",
"3  c #1B2322",
"4  c #1F2826",
"5  c #1F2729",
"6  c #1E282A",
"7  c #202626",
"8  c #202B27",
"9  c #212629",
"0  c #232C2C",
"q  c #26302F",
"w  c #262F30",
"e  c #282D30",
"r  c #263031",
"t  c #2A3334",
"y  c #2E3837",
"u  c #2D3738",
"i  c #2E393A",
"p  c #303538",
"a  c #323D3D",
"s  c #34413E",
"d  c #353F41",
"f  c #354242",
"g  c #394545",
"h  c #394846",
"j  c #3B4748",
"k  c #3D4B4B",
"l  c #3F5151",
"z  c #414E4E",
"x  c #40504F",
"c  c #424F50",
"v  c #445454",
"b  c #495757",
"n  c #455857",
"m  c #485857",
"M  c #465759",
"N  c #495758",
"B  c #465958",
"V  c #4B5C5C",
"C  c #505E5F",
"Z  c #4D605F",
"A  c #50605F",
"S  c #4D5E60",
"D  c #515F60",
"F  c #4E6161",
"G  c #526464",
"H  c #586667",
"J  c #546867",
"K  c #536768",
"L  c #566A6A",
"P  c #5A6D6D",
"I  c #57706D",
"U  c #5B716E",
"Y  c #5B6F70",
"T  c #5D7272",
"R  c #5F7875",
"E  c #5F7978",
"W  c #617575",
"Q  c #637977",
"!  c #627778",
"~  c #647B7B",
"^  c #697E7E",
"/  c #66817E",
"(  c #69817F",
")  c #677F81",
"_  c #6A7F80",
"`  c #678180",
"'  c #6C8484",
"]  c #6E8887",
"[  c #6E8788",
"{  c #6F8A89",
"}  c #718586",
"|  c #718987",
" . c #728C8C",
".. c #74908F",
"X. c #79928F",
"o. c #748F90",
"O. c #769292",
"+. c #7A9594",
"@. c #7D9897",
"#. c #7C9798",
"$. c #7E9999",
"%. c #809596",
"&. c #829997",
"*. c #829798",
"=. c #839C9B",
"-. c #899E9E",
";. c #86A09F",
":. c #89A19E",
">. c #879FA1",
",. c #8A9FA0",
"<. c #86A1A1",
"1. c #8BA2A3",
"2. c #8FA8A5",
"3. c #8EA6A8",
"4. c #8FA9A8",
"5. c #90A5A6",
"6. c #91A6A7",
"7. c #92A6A7",
"8. c #93A5A7",
"9. c #91A6A6",
"0. c #93A9A7",
"q. c #94A8A7",
"w. c #92A8A6",
"e. c #93A7A8",
"r. c #93A7AA",
"t. c #95A7A9",
"y. c #93A7A8",
"u. c #93A8A9",
"i. c #91A9AA",
"p. c #94A8A9",
"a. c #96AAA9",
"s. c #95A9AA",
"d. c #97AAAA",
"f. c #96ACAA",
"g. c #97ABAC",
"h. c #97ACAD",
"j. c #95AFAC",
"k. c #95AAAA",
"l. c #98ACAB",
"z. c #99ADAD",
"x. c #9BADAD",
"c. c #98ADAE",
"v. c #99AEAD",
"b. c #99ADAD",
"n. c #9AB0AE",
"m. c #9CB0AF",
"M. c #9CB0AF",
"N. c #9BAFB0",
"B. c #9BAFB0",
"V. c #9FB3B2",
"C. c #9DB1B1",
"Z. c #9EB2B2",
"A. c #A0B2B2",
"S. c #A2B5B7",
"D. c #A5B7B7",
"F. c #A2B4B4",
"G. c #A4B8B7",
"H. c #A4B8B7",
"J. c #A4B7B9",
"K. c #A6B9B9",
"L. c #A6B9B9",
"P. c #A9BABA",
"I. c #ABBDBD",
"U. c #ABBBBC",
"Y. c #B3BFBF",
"T. c #B1BEC0",
"R. c #B3C3C3",
"E. c #B8C4C4",
"W. c #B9C7C8",
"Q. c #BAC8C9",
"!. c #C0D0CF",
"~. c #C5D2D2",
"^. c #CAD6D6",
"/. c #CCD7D9",
"(. c #D1D6DA",
"). c #D3DDDF",
"_. c #D9DFDF",
"`. c #DAE3E2",
/* pixels */
"V V n V V V V G G T ! ~ ^ ' ! R ! ~ T ! ^ ~ ^ ! U ' Z X   ! A.+.#.c.Y     V ` P T ! ! ! T U Q W T T T T K J F V V V Z G G B V G ",
"3.7.u.t.u.e.3.7.q.V.H.K.D.P.c.k.g.j.u.e.e.7.k.u.k.S.Z   3 +.0.+.=.k. .3   F S.7.3.e.7.7.7.0.k.k.k.k.u.7.u.1.1.e.1.7.c.V.N.k.7.e.",
"h g t > 3 0 t 3 ; 3 > 3 > = = % @ % = * 3 : : W e.k.V   q #.1.>.7.V.=.r   V c.7.Q > : 3 * = % @ $ # # = = * * > 7 t r 0 5 p h h ",
"r t ; 0 7 >   3 k v h h f h h f a f h v X   = P 7.j.V   * ] k.3.c.U.#.=   V j.k.P =   X z h h f f f f f f f k h 4   3 0 t ; q q ",
";  .v W P x   n 7.c.1.=.#.u.1.1.4.e.7.c.r 0 t K 3.f.n X   K V.7.c.W.T   @ n l.7.K t 0 r c.e.1.1.1.1.3.#.=.1.j.7.B   b ~ | v ^ ; ",
"r K.B n V i 3 T  .=.O.| ` O.O.{ +.#.O.O.n r ; I e.c.n   a =.1.7.V.P.1.a X n M.u.U ; r v  .O. . . . .| ' o.+.=.{ P 3 d Y L V n.0 ",
"f N.B V V t a ^ ] =.O...` { { ] { {  .' G K 1 G 7.c.l X =.3.3.:.1.7.u.;.@ v N.e.J 3 G F ` { | | ] ` ] ` ..+.=.' ^ i i K G v 7.i ",
"r e.n G V h * V ..@.O.| | =.+.+.#.#.#.+.F J : G 7.f.k @  .+.7.-.=.7.#.| # c c.7.G : G V O.+.#.@.#. .O.` { O.=.O.S = f V Z k $.0 ",
"$ t a U F h   c #.=.+. .] 1.! V V ! -.V G ] > V 1.f.z @  .+.7.=.=.e.#. .@ k g.7.V 3 ] V V =.! G B T =.` | O.=.#.k   k Z T p w X ",
"* 3 w U D h   N #.-.+. .{ e.P f c T 1.k F | > B 7.c.k # | @.7.1.7.V.1.O.# k f.1.V 3 | V k 1.T k f U c.] | +.=.+.v X j V U r 6 $ ",
"3 =.k V V f X n +.-.O. .] e.P f n T 1.n V ! : B k.c.j #  .#.,.7.A.K.7.+.# j k.0.V ; ! V v :.T n j T c.|  .O.=.+.n X h V V k =., ",
"> k.v v b h   n +.=.O.| ` 3.! V F ! =.V F ^ > V 1.3.k % O.@.1.1.7.g.-.=.# v V.f.P > ` V V =.R F V ^ j.O.O.+.=.O.v X h N v c u.2 ",
"0 ,.n ] P a   v O.=...] ' ,.! V V ~ =.V V ~ ; V -.u.j = K ` N.1.:.7.! G ; V I.c.T > ` V V =.^ V V ! -.` ] +.=. .v   a P ( n 1.0 ",
"5 @.G 1.( i . V +.=.O.{ ' =.` K G ` =.K F ^ - n 3.V.h X n -.c.3.1.k.=.V O m E.F.K > ` F K =.` K K ! =.` | ..#...n @ u ] 3.G =.7 ",
"3 =.V -.' t X V 1.c.1.=.+.1.=.=.=.+...O.K ^ ; k -.k.f = F.1.| O... .1.D.$ h K.k.F > ` G  . .#.=.=.-.1.O.-.;.u.<.n X a ^ $.F #.4 ",
"3 =.n =.` t   x F F V v V K =.e.1.,.<.=.K ~ ; V j.c.f 7 S.$.$.$.$.#.=.D.3 t f.3.k ; ! J =.-.1.k.g.1.L n v V V V v   t ~ @.V #.3 ",
"4 =.V  .^ t   z :   = O ; * 0 f p f h w k | - V c.h.f 4 c.=.-.1.1.1.-.x.> t c.1.j ; ] j r h f i h 0 * ;   =   - v @ r ` #.V #.4 ",
"> @.J  .1.G # n T T U T U T J v n V F n V ' = g :.k.t 4 V.=.7.-.-.1.=.c.> t k.1.h = ` V v V F n M G W T T T P T n % K 3. .J =.> ",
"- #.G 1.=.=.k k -.u.1.3.1.1.3.1.1.1.7.^ v ] * h 3.k.a # ] k.S.3.=.1.1.] O d g.1.h * ] B ^ c.j.c.B.k.3.1.3.;.j.1.k h 0.-. .G $.; ",
"; +.J u.$.1.V a O.@...O.O.O.O.O.O.O.1.! v ] = h 7.g.u > x.=.1.1.-.-.@.c.> i k.7.g * ] k T 1.=.=.=.@...@.=.{ -.@.a G c.#.| G $.; ",
"> #.D +.O.=.v f  .+. .o.O.O.O. . . .1.c.P P * a k.j.f = k ^ k.-.1.c.~ k = i j.e.i % K G O.+.O. .O.O.O.+.#. .#.O.d V e.#.O.G #.< ",
"0 O.V `  .-.n f  .O.{  . . .O.$. .....' T O.* f -.7.k     P A.=.-.V.L   @ z e.-.f * +.T ` #.+.+.-.=.O.o. . .$.O.f V 3.+. .Z #.0 ",
"4 O.V ` O.,.V f  .@. .O.O. .#.=.O.O.O. .V T * j 1.e.g @ 2 P S.k.7.A.W 2 # k c.1.k = P G  .O.+.-.3.=.O.+.O.O.1.O.f F 7.O.} F +.7 ",
"> O.G T W 1.B a O.+.O.#.O.O.O.O.+.O.+.| K ` # f k.V.a * 3 T x.c.D.I.Q 3 = h J.k.f @ ] T  .+.O.=.=.#.O.+.+.+.=...a V 7.! ! G +.= ",
"2 O.J ~ P 1.B f O.#.{ |  .O.O.O.O. .+. .J h   j 7.V.y ; i Y k.e.D.R.~ i > f S.l.j   k P O.+.O.+.$...|  ...O.#.O.f V 7.T ! K O.; ",
"a O.K T K -.n h O.$. .O.+.O.O.O.O.+.+.+.t k > a e.A.r 3 @.' 7.1.k.V.| =.0 i F.u.g 3 z i $.+.+. .| +.=.-.=.O.=.O.f B 1.K T L O.a ",
"a  .G | _ =.v f O.+. . .O.O.O.O.O.O.+.-.* 3 q p 7.c.a # t ! j.=.=.c.W r = f F.t.f t 2 * ;.#.O...| $.3.1.=.O.$.O.h n -.` | G O.a ",
"a O.F ]  .e.V h O.+. .o. . .o.O.O.O.O.O.P h   a 3.j.p > 2 T S.7.2.S.T : - i c.1.i   g U O.+.O.O. .+.-.=.#.O.+.o.f F 7.| ] J +.d ",
"f +.J R R c.G f o.#.O.o. .O.O.O.+.O.+.{ Q Q # t 3.e.w , ( ] $.] ] =.] ' ; 0 e.e.i # ~ ~ { +...O. .+.-.=.=.O.+. .h F u.K P J #.f ",
"f O.G ] ' 7.V k +.+. .O.O.+.O.O.O.O.+.| K  .* r 7.e.r > P G P v n ! T W > 0 1.V.p = +.P [ #.O.O.| #.3.-.1.o.O. .f V c.| | G O.a ",
"a +.J ^ ~ g.n h +.#.O.=.+.O.O.O.O.O.+.` ' K.% 0 7.k.0 > U L ` K K ' P P : a A.1.w * U.' ^ $.+.O. .#.,.1.3.O.+.o.a V U.{ ..P O.a ",
"a +.K =.-.V.V i O.=.>.1.#.O.O.O.O...+.O.B G * q 3.k.w > T R +.^ ^ +.! R > i V.7.r = K B O.=.+.O.o.O.=.@.O.O.$.O.a m B.7.-.G O.a ",
"a #.J ` ' k.B f o.#.+.#.+.o.O.O...#.#.O.k t X t 7.k.w 3 T T ..Q ^ O.W W 3 e c.q.i @ i k O.+.+.O.O.+.+.O.+.O.#.O.f C P.O.O.K O.a ",
"f #.J P L e.n h O.#.|  .O.O.O.O...#.#.{ H f   r 7.c.0 > T P T n M W P T : t c.0.t   j P  .#.O.....O. . ... .+. .f B K.! ^ U +.a ",
"f #.K T ! V.V h #.=.| { { O...O... .+.+.k B * 0 7.c.0 > T T ~ V V ~ P T > w c.k.0 = B j +.+.O...O. ...{ '  .+. .g Z k.K P K +.a ",
"f -.J ^ | c.G h +.;.=.@.#.=.O.O.O.O.#. .V Q X 0 7.c.0 3 I ! =.' ` @.! K 3 0 k.3.9 X W V | +.o.O.O. .' ] ] { O. .h F 3.] ~ F #.a ",
"f =.J O. .-.V f @.;.#.-.1.1.+.| O.+.+.| S T X 7 7.l.q $ ; Y V.1.1.j.L * $ r g.7.7 @ T V | +.O.O. .o.| { ] ] .. .f v =... .F +.a ",
"t =.P R T 1.B k $.<...=.3.1.+. . .O.#.` L `   7 7.c.t   G -.=.=.+.-.1.V   r g.3.7   ^ G ` #.O.o.+.+.o.O. .O.-.#.j B -.T E K #.t ",
"- =.K ^ ' 1.V f $.1.O.+.+.O.#.O. .=.O.` P ^ X 3 e.k.0 X 1.C.7.1.1.=.g.1.X 0 k.7.4   ~ K ` O.+.o.O.O. .O. .$.3.=.h V -.~ ^ G @.> ",
"- #.G T Y 3.B f +.=. . . . . .O.O.+.+.] L ~   4 3.c.t X > T S.-.1.c.P > X 0 7.1.4   T K ] O.+.O. .o.O.O. .=.3.-.h V u.L T J +.= ",
"= +.G R ` 1.A f  .$. .O.O.O. .O...O.#.| L !   3 1.U.k #   V S.-.-.K.V   @ r 1.1.3 # ~ G ] O... .O.O.O.+...=.k.-.h J e.` ! G +.= ",
"= -.F | +.-.V f O.+.O. .| O.+.#.#.+.O.] P !   3 ,.u.e # 5 ~ c.;.-.x.~ 0 # 0 7.1.- ; O.G `  .O.O.+.+.o.o.O.@.3.-.k F -.#...V #.; ",
"- =.F | O.1.V f ..#. .O.o...1.3.1.1...] P W   3 ;.1.; = ^.D.+.;.1.+.K.^.- : t.<.; # ] K ] | | O.@.+.o.o. .=.1.-.h V 1.O...F #.> ",
"; O.F | O.7.B a O.$.O.O.O.O.+.+.+.+.=.` v T # 3 1.k.6   +.e.-.-.-.-.t.X.X 4 7.1., # P v ^ @.O.+.=.#.O.O.O.=.1.=.d K V.O.| F #.; ",
"; +.V { +.7.v h #.-.#.#.#.@.+.+.#...x.J ! ).8 = 1.0.0   0 ' j.1.<.g.( 0   0 7.1.= , /.W S e.1.=.7.1.#.#.#.#.=.+.j V D.O.| G =.; ",
"> @.F O.3.( ; v  .+.{  .{  . .) ` ` O.} n G % 3 1.0.0   O Q x.-.-.M.~ O   0 7.1.> # S B ^ { ] ] ] O. . . .{ O.[ v > ' 7.O.G =.> ",
"> #.G =.=.f O B a 0 p 0 a 0 0 d r a h i 0 w o 4 1.u.0     P A.-.-.c.U     0 k.1.< X r q i a a r p 0 q f 0 t 0 a k X f =.$.Z =.< ",
"3 =.V -.' a   V a r t 0 r f ^ 1.=. .{  .$.=.> ; 3.g.0     K A.1.-.V.K     0 k.3.; ; $.%. .O. .O.$.' f r 9 p 0 a v   t ` =.B -.4 ",
"3 =.V -.o.d X J #.#.| ] R =.1.c.c.=.O.=.<.-.= = 7.f.w     L S.-.1.K.K     0 k.7.= ; =.-.1.$.#.<.>.1.=.~ ]  .$.+.V X i ~ #.G 1.3 ",
"; =.J c.O.a X V @.,.1.+.O.3.] ] ` { #.` | ]   O 0.k.0   3 ] N.:.:.N.] 3   0 g.u.X   ] ] ` $.{ ! ! | -.| ..=.-.#.n X i } 3.J =.; ",
"0 =.F +.! i   v ..1.e.=.#.V.~ G G ~ =.K ( s ; h =.j.0 @ G %.0.<.-.3.%.U X 7 g.,.s ; f ' K =.^ V S ! ;.` { o.#.O.v X i Q +.G =.0 ",
"f 1.k V V f X n O.-.=.O.| k.~ P T ~ #./ h f R.N.=.V.q X V  .k.,.,.u.O.F   0 V.=.l.R.h k / $.^ K G Q -.` ] O.@.O.v # h V V c 1.s ",
"3 3.x V V h @ V +.=...{ ` 1.P z n P c.t d T.D.=.P. .X # F { e.1.:.k. .F # X  .K.#.F.I.h t c.P v f W V... .O.=.O.n X h V n v g.7 ",
"3 7.n V F h X m #.=.O.| ` 1.P v V ' I v U.k.O.P.@.X   i n ( g.$.=.j.' n i   O +.J.{ k.R.b U ] n h ^ U.O.| O.=.+.v X j V V n f.0 ",
"  2 0 R J h   v +.-.+. .| 7.P B P i K K.7...D.=.O   G L i  .e.&.=.g. .i I J   + +.D.O.0.Y.! i G j ( c.| | O.=.+.z   j F W w 5 # ",
"q 2 0 R F h O n O.e.k.=.=.c.#.-.v F U.1.#.D.=.O   0 ~.T V A.1.-.-.<.M.V W ~.0   + =.K.#.u.E.G h X.e.u.|  .O.=.#.v X k F Q 0 3 s ",
"~ ^ 0 h s 2 = V T O.$. .^ | Q V ] P.-.=.P.=.&     Z `.G ( C.1.=.-.<.c.^ G _.V     % =.J.#.1.T.^ n | ] R ` ^ ] R V * > h k 0 ~ ' ",
"O.<.~ ! ~ P !  .]  .O.+.| ' Y  .R.-.&.S.,.X   r = V S.h ] f.-.:.-.,.k.` a A.V = t   @ 1.P.+.-.R. .T ` | ..] | {  .W T ~ R W *.o.",
"P.0.M.A.V.K.R.D.c.c.f.f.S.P.I.E.1.$.D.1.#     f 4 t ! t ' c.1.-.-.<.k.' r ! r 7 f     ; k.A.$.,.R.R.I.H.l.c.k.k.A.R.D.V.P.P.V.J.",
"7. .| | {  .-.+.[  .o. .+.=.=.k.e.V.=.%   U i   - W P > T V.1.1.1.3.V.Y > K T =   a U   = e.S.-.1.1.3.+. . .' ' O.=.| ..-.;.1.=.",
"T.I.R.R.R.R.A.S.D.P.I.I.D.A.A.R.!.1.*     F < : g v Q 3 V :.O.o.o...-.G 3 R v j < 9 F     ; 1.E.I.U.H.P.I.K.S.D.S.A.U.Q.(./.~.D.",
"T L L K L K K F G G G J J J G ~ ^ #   0 u.k.F.V.0 7 ' 3 ! K.=.=.-.1.V.! 3 ^ 4 0 V.J.c.g.0   * Q W K K K K F G F G K J Y ~ W T K ",
"                                      a O.^ ~ W * # M > W D.=.=.V.E.D.K > v # ; R ^ ` O.a                                       ",
"c.c.c.f.c.c.c.c.f.f.k.k.k.k.k.k.c.j.7.1.O.O...-.7.7.=.= @ T A.=.1.P.! X * =.k.3.;.O.O.O.1.7.k.x.k.c.c.k.k.k.k.f.j.c.c.c.j.c.c.c."
};
